<svg width="30" height="30" viewBox="0 0 30 30" fill="none" xmlns="http://www.w3.org/2000/svg">
<path d="M6.25 11.25V8.75H8.75V11.25H6.25ZM11.25 11.25H23.75V8.75H11.25V11.25ZM6.25 18.75V21.25H8.75V18.75H6.25ZM23.75 21.25H11.25V18.75H23.75V21.25Z" fill="#4E6EF1"/>
<path fill-rule="evenodd" clip-rule="evenodd" d="M1.25 7.5C1.25 6.50544 1.64509 5.55161 2.34835 4.84835C3.05161 4.14509 4.00544 3.75 5 3.75H25C25.9946 3.75 26.9484 4.14509 27.6517 4.84835C28.3549 5.55161 28.75 6.50544 28.75 7.5V22.5C28.75 23.4946 28.3549 24.4484 27.6517 25.1517C26.9484 25.8549 25.9946 26.25 25 26.25H5C4.00544 26.25 3.05161 25.8549 2.34835 25.1517C1.64509 24.4484 1.25 23.4946 1.25 22.5V7.5ZM5 6.25H25C25.3315 6.25 25.6495 6.3817 25.8839 6.61612C26.1183 6.85054 26.25 7.16848 26.25 7.5V13.75H3.75V7.5C3.75 7.16848 3.8817 6.85054 4.11612 6.61612C4.35054 6.3817 4.66848 6.25 5 6.25ZM3.75 16.25V22.5C3.75 22.8315 3.8817 23.1495 4.11612 23.3839C4.35054 23.6183 4.66848 23.75 5 23.75H25C25.3315 23.75 25.6495 23.6183 25.8839 23.3839C26.1183 23.1495 26.25 22.8315 26.25 22.5V16.25H3.75Z" fill="#4E6EF1"/>
</svg>
