<svg width="30" height="30" viewBox="0 0 30 30" fill="none" xmlns="http://www.w3.org/2000/svg">
<path d="M9.37501 7L6.25001 8.75L8.00001 5.625L6.25001 2.5L9.37501 4.25L12.5 2.5L10.75 5.625L12.5 8.75L9.37501 7ZM24.375 19.25L27.5 17.5L25.75 20.625L27.5 23.75L24.375 22L21.25 23.75L23 20.625L21.25 17.5L24.375 19.25ZM27.5 2.5L25.75 5.625L27.5 8.75L24.375 7L21.25 8.75L23 5.625L21.25 2.5L24.375 4.25L27.5 2.5ZM16.675 15.975L19.725 12.925L17.075 10.275L14.025 13.325L16.675 15.975ZM17.9625 9.1125L20.8875 12.0375C21.375 12.5 21.375 13.3125 20.8875 13.8L6.30001 28.3875C5.81251 28.875 5.00001 28.875 4.53751 28.3875L1.61251 25.4625C1.12501 25 1.12501 24.1875 1.61251 23.7L16.2 9.1125C16.6875 8.625 17.5 8.625 17.9625 9.1125Z" fill="#4E6EF1"/>
</svg>
