<svg width="30" height="30" viewBox="0 0 30 30" fill="none" xmlns="http://www.w3.org/2000/svg">
<path d="M9.60938 1.875C8.80129 1.875 8.02631 2.19601 7.45491 2.76741C6.88351 3.33881 6.5625 4.11379 6.5625 4.92188V25.0781C6.5625 25.8862 6.88351 26.6612 7.45491 27.2326C8.02631 27.804 8.80129 28.125 9.60938 28.125H20.3906C21.1987 28.125 21.9737 27.804 22.5451 27.2326C23.1165 26.6612 23.4375 25.8862 23.4375 25.0781V4.92188C23.4375 4.11379 23.1165 3.33881 22.5451 2.76741C21.9737 2.19601 21.1987 1.875 20.3906 1.875H9.60938ZM8.4375 4.92188C8.4375 4.275 8.9625 3.75 9.60938 3.75H20.3906C21.0375 3.75 21.5625 4.275 21.5625 4.92188V25.0781C21.5625 25.725 21.0375 26.25 20.3906 26.25H9.60938C8.9625 26.25 8.4375 25.725 8.4375 25.0781V4.92188ZM13.125 22.5C12.8764 22.5 12.6379 22.5988 12.4621 22.7746C12.2863 22.9504 12.1875 23.1889 12.1875 23.4375C12.1875 23.6861 12.2863 23.9246 12.4621 24.1004C12.6379 24.2762 12.8764 24.375 13.125 24.375H16.875C17.1236 24.375 17.3621 24.2762 17.5379 24.1004C17.7137 23.9246 17.8125 23.6861 17.8125 23.4375C17.8125 23.1889 17.7137 22.9504 17.5379 22.7746C17.3621 22.5988 17.1236 22.5 16.875 22.5H13.125Z" fill="#4E6EF1"/>
</svg>
