<svg width="237" height="200" viewBox="0 0 237 200" fill="none" xmlns="http://www.w3.org/2000/svg">
<g clip-path="url(#clip0_725_232)">
<path d="M126.468 28.0918C134.313 22.297 145.357 20.0756 153.998 24.5963C144.27 28.8202 136.349 36.349 131.638 45.8506C129.834 49.5216 128.21 53.7924 124.488 55.489C122.172 56.5447 119.439 56.3408 117.041 55.4884C114.643 54.6359 112.51 53.1877 110.407 51.7549L109.776 51.6789C113.519 42.6733 118.624 33.8866 126.468 28.0918Z" fill="#F0F0F0"/>
<path d="M153.929 24.7889C145.86 25.0416 138.077 27.8303 131.683 32.7587C130.288 33.7952 129.065 35.0452 128.059 36.4626C127.124 37.875 126.584 39.512 126.495 41.2037C126.381 42.7794 126.446 44.4043 125.951 45.9248C125.686 46.6993 125.26 47.409 124.701 48.0074C124.143 48.6058 123.464 49.0793 122.71 49.397C120.85 50.2373 118.8 50.3595 116.79 50.4093C114.559 50.4646 112.241 50.4866 110.212 51.5371C109.967 51.6644 109.783 51.2755 110.029 51.1484C113.559 49.3208 117.684 50.5132 121.394 49.4255C123.125 48.9179 124.714 47.8855 125.409 46.1583C126.017 44.6479 125.951 42.9721 126.053 41.3757C126.115 39.7242 126.581 38.113 127.409 36.6829C128.34 35.2189 129.513 33.9239 130.878 32.8534C133.912 30.3942 137.315 28.4275 140.96 27.0253C145.112 25.4019 149.511 24.5007 153.967 24.3606C154.242 24.352 154.203 24.7803 153.929 24.7889Z" fill="white"/>
<path d="M133.649 31.0505C132.967 29.8656 132.73 28.4771 132.977 27.133C133.225 25.7889 133.943 24.5767 135.002 23.7129C135.217 23.5388 135.498 23.8646 135.283 24.0389C134.295 24.8415 133.626 25.9707 133.398 27.2228C133.17 28.4749 133.396 29.7674 134.037 30.867C134.176 31.1061 133.787 31.2882 133.649 31.0505Z" fill="white"/>
<path d="M126.448 40.3972C129.139 41.1493 132.014 40.8595 134.501 39.5857C134.747 39.4593 134.931 39.8482 134.685 39.9744C132.094 41.2952 129.101 41.5906 126.303 40.8018C126.036 40.7264 126.183 40.3222 126.448 40.3972Z" fill="white"/>
<path d="M145.092 25.9714C145.26 26.4848 145.553 26.9485 145.944 27.3207C146.336 27.6929 146.813 27.962 147.335 28.1039C147.602 28.1758 147.455 28.58 147.19 28.5085C146.614 28.349 146.087 28.0512 145.654 27.6409C145.22 27.2306 144.894 26.7205 144.703 26.1549C144.68 26.1031 144.679 26.0447 144.698 25.9916C144.717 25.9385 144.755 25.8946 144.805 25.8688C144.857 25.8448 144.916 25.8421 144.97 25.8613C145.023 25.8805 145.067 25.9201 145.092 25.9714Z" fill="white"/>
<path d="M160.85 56.8982C160.682 56.858 160.513 56.8178 160.342 56.78C158.077 56.2516 155.772 55.908 153.45 55.7528C153.271 55.738 153.089 55.7257 152.91 55.716C147.313 55.4017 141.707 56.1292 136.376 57.8615C134.256 58.5527 132.191 59.4043 130.199 60.4089C127.449 61.7964 124.578 63.5196 121.617 63.9061C121.308 63.9499 120.997 63.9746 120.686 63.9799L109.732 52.4544C109.721 52.4157 109.706 52.3794 109.694 52.3406L109.236 51.9004C109.335 51.8414 109.439 51.7824 109.538 51.7234C109.595 51.6889 109.655 51.6571 109.713 51.6226C109.752 51.6005 109.791 51.5784 109.825 51.5562C109.838 51.5488 109.851 51.5415 109.861 51.5365C109.895 51.5143 109.929 51.4973 109.96 51.4775C110.541 51.1459 111.125 50.8178 111.712 50.4931C111.715 50.4906 111.715 50.4906 111.72 50.4907C116.201 48.0285 120.927 45.9188 125.824 44.5935C125.971 44.5537 126.121 44.5112 126.273 44.4767C128.483 43.8915 130.738 43.4881 133.014 43.2702C134.261 43.155 135.512 43.1029 136.764 43.1142C139.999 43.1496 143.208 43.6936 146.274 44.7263C152.385 46.7858 157.77 50.7768 160.635 56.4617C160.708 56.6072 160.779 56.7502 160.85 56.8982Z" fill="#F0F0F0"/>
<path d="M160.679 57.0112C154.085 52.3553 146.191 49.8956 138.119 49.9814C136.381 49.969 134.652 50.2307 132.995 50.7568C131.398 51.3214 129.981 52.3033 128.892 53.6007C127.852 54.7899 126.926 56.1268 125.615 57.0426C124.937 57.5014 124.17 57.8117 123.363 57.9531C122.557 58.0945 121.73 58.0639 120.936 57.8633C118.946 57.4148 117.235 56.2779 115.601 55.1079C113.786 53.8088 111.922 52.4307 109.67 52.0479C109.397 52.0015 109.485 51.5808 109.757 51.6271C113.676 52.2931 116.252 55.7288 119.869 57.094C121.557 57.7311 123.447 57.8633 125.042 56.9027C126.436 56.0627 127.392 54.6849 128.435 53.4717C129.479 52.1905 130.821 51.1844 132.343 50.5414C133.968 49.9327 135.684 49.6049 137.418 49.5719C141.322 49.4355 145.223 49.9137 148.978 50.989C153.27 52.1924 157.325 54.1213 160.967 56.6921C161.192 56.8513 160.903 57.1694 160.679 57.0112Z" fill="white"/>
<path d="M140.716 49.8008C140.886 48.4445 141.532 47.1927 142.539 46.2688C143.546 45.3449 144.849 44.8091 146.215 44.7571C146.491 44.7475 146.519 45.1766 146.242 45.1862C144.97 45.2322 143.757 45.7314 142.821 46.5937C141.885 47.4559 141.287 48.6244 141.137 49.8883C141.104 50.1629 140.683 50.0738 140.716 49.8008Z" fill="white"/>
<path d="M129.34 52.9282C131.035 55.1489 133.506 56.6488 136.258 57.1289C136.531 57.1762 136.443 57.597 136.171 57.5497C133.307 57.0447 130.74 55.4786 128.98 53.1639C128.813 52.9432 129.173 52.7087 129.34 52.9282Z" fill="white"/>
<path d="M152.911 52.6349C152.736 53.146 152.691 53.6926 152.779 54.2255C152.868 54.7584 153.087 55.2609 153.418 55.6881C153.588 55.9066 153.228 56.1408 153.058 55.9237C152.695 55.4502 152.454 54.8948 152.354 54.3063C152.255 53.7177 152.302 53.1138 152.49 52.5474C152.503 52.4925 152.537 52.4448 152.584 52.4138C152.631 52.3829 152.689 52.371 152.744 52.3808C152.8 52.3926 152.849 52.426 152.88 52.4736C152.911 52.5212 152.922 52.5791 152.911 52.6349Z" fill="white"/>
<path d="M124.399 36.7127H123.55V13.4588C123.55 11.6913 123.202 9.94122 122.525 8.30832C121.849 6.67543 120.858 5.19175 119.608 3.94198C118.358 2.69222 116.875 1.70086 115.242 1.02449C113.609 0.348125 111.859 9.52829e-07 110.091 0H60.8245C59.0571 -3.81116e-06 57.307 0.348113 55.6741 1.02448C54.0412 1.70084 52.5575 2.6922 51.3077 3.94196C50.058 5.19172 49.0666 6.6754 48.3902 8.30829C47.7139 9.94118 47.3657 11.6913 47.3657 13.4587V141.032C47.3657 144.601 48.7837 148.025 51.3077 150.549C53.8317 153.073 57.255 154.491 60.8245 154.491H110.091C113.661 154.491 117.084 153.073 119.608 150.549C122.132 148.025 123.55 144.601 123.55 141.032V53.2653H124.399V36.7127Z" fill="#3F3D56"/>
<path d="M110.634 3.50148H104.203C104.499 4.22654 104.612 5.0132 104.532 5.79217C104.452 6.57114 104.182 7.31851 103.745 7.96843C103.308 8.61836 102.718 9.15089 102.027 9.51913C101.336 9.88736 100.565 10.08 99.7821 10.0801H71.5578C70.7748 10.08 70.0038 9.88737 69.3127 9.51913C68.6216 9.1509 68.0317 8.61836 67.5949 7.96844C67.1581 7.31851 66.8879 6.57114 66.808 5.79217C66.7281 5.0132 66.841 4.22653 67.1367 3.50146H61.1302C58.4646 3.50146 55.9081 4.56039 54.0232 6.44529C52.1383 8.33019 51.0794 10.8867 51.0793 13.5523V140.938C51.0793 142.258 51.3393 143.565 51.8444 144.785C52.3495 146.004 53.0899 147.112 54.0232 148.045C54.9565 148.979 56.0645 149.719 57.2839 150.224C58.5033 150.729 59.8103 150.989 61.1302 150.989H110.634C111.954 150.989 113.261 150.729 114.48 150.224C115.7 149.719 116.808 148.979 117.741 148.045C118.675 147.112 119.415 146.004 119.92 144.785C120.425 143.565 120.685 142.258 120.685 140.938V13.5523C120.685 10.8867 119.626 8.33019 117.741 6.44529C115.856 4.56039 113.3 3.50147 110.634 3.50148Z" fill="white"/>
<path d="M86.8334 110.068C83.188 110.071 79.5777 109.356 76.2091 107.962C72.8405 106.569 69.7798 104.525 67.2021 101.947C64.6244 99.3695 62.5804 96.3087 61.1869 92.9402C59.7934 89.5716 59.0779 85.9613 59.0813 82.3159C59.0761 77.197 60.4889 72.1768 63.1628 67.8118C65.8368 63.4469 69.6675 59.9078 74.2301 57.5872C77.5374 55.9045 81.148 54.9008 84.8492 54.6352C88.5505 54.3696 92.2674 54.8474 95.7811 56.0404C102.004 58.161 107.272 62.4216 110.647 68.0633C114.022 73.705 115.285 80.3615 114.211 86.8474C113.137 93.3332 109.795 99.2272 104.782 103.48C99.7679 107.732 93.4075 110.067 86.8334 110.068ZM86.8334 55.6522C82.6232 55.6398 78.4713 56.6356 74.7249 58.5565C71.4501 60.2249 68.5556 62.5523 66.2231 65.3925C63.8906 68.2328 62.1704 71.5246 61.1706 75.0612C60.1707 78.5979 59.9128 82.3031 60.413 85.9442C60.9132 89.5853 62.1607 93.0836 64.0773 96.2197C65.9938 99.3557 68.5379 102.062 71.55 104.168C74.562 106.274 77.9769 107.734 81.5802 108.458C85.1836 109.181 88.8976 109.152 92.4892 108.372C96.0807 107.592 99.4722 106.078 102.451 103.925C103.891 102.886 105.222 101.704 106.425 100.398C109.944 96.5908 112.276 91.8405 113.136 86.7284C113.996 81.6163 113.347 76.3643 111.267 71.6157C109.188 66.867 105.769 62.8277 101.43 59.9923C97.0897 57.157 92.0173 55.6487 86.8334 55.6522Z" fill="#F0F0F0"/>
<path d="M26.6988 57.6868C27.4606 57.7823 28.1921 58.0436 28.8419 58.4525C29.4917 58.8613 30.044 59.4076 30.4599 60.053C30.8757 60.6983 31.145 61.427 31.2487 62.1877C31.3525 62.9484 31.2882 63.7226 31.0604 64.4557L40.281 72.1362L36.9802 78.8779L24.1113 67.8487C22.905 67.3843 21.911 66.4936 21.3175 65.3454C20.7241 64.1971 20.5725 62.871 20.8914 61.6184C21.2104 60.3658 21.9777 59.2737 23.0481 58.5491C24.1184 57.8245 25.4174 57.5177 26.6988 57.6868Z" fill="#FFB6B6"/>
<path d="M112.815 89.7164C112.63 87.7286 111.866 84.155 111.217 82.8337C109.223 77.6142 96.338 73.3244 94.6077 72.7714L94.1688 67.8921L76.2659 65.9658L73.9949 72.2054L67.5739 74.6142C67.138 74.7768 66.7434 75.0338 66.4185 75.3669C66.0936 75.6999 65.8464 76.1007 65.6947 76.5406L59.9339 78.2057L54.2493 79.849L34.5 65.9331L33.5676 66.5426L27.3353 70.6092L26.3738 71.2368L51.9311 94.2946L61.4249 92.0672L68.5643 90.3876L69.1736 92.8617L67.5957 101.554C72.1674 106.127 78.2191 108.922 84.6651 109.437C91.1112 109.953 97.5299 108.154 102.77 104.365L106.826 100.766C109.652 97.71 111.739 94.0448 112.924 90.0538L112.815 89.7164Z" fill="#E4E4E4"/>
<path d="M90.8423 61.9753C97.6005 59.7377 101.265 52.4451 99.0276 45.6869C96.79 38.9286 89.4975 35.2639 82.7392 37.5015C75.981 39.7391 72.3162 47.0316 74.5538 53.7899C76.7914 60.5481 84.084 64.2129 90.8423 61.9753Z" fill="#FFB6B6"/>
<path d="M76.6091 35.0434C77.8623 33.2538 79.7429 32.0011 81.8772 31.5344C83.9874 31.1003 86.1838 31.5032 88.0026 32.6579C89.9804 31.8612 92.1129 31.3326 94.208 31.6013C96.3032 31.87 98.3566 33.0403 99.326 34.9683C99.53 35.4677 99.7774 35.9483 100.065 36.4044C100.92 37.5439 102.507 37.6917 103.909 37.7465C103.2 38.1598 102.491 38.5731 101.782 38.9864C102.489 39.3156 103.195 39.6448 103.902 39.974C102.94 40.341 101.979 40.7081 101.017 41.0751C103.255 43.0422 103.796 46.5429 102.949 49.4779C102.147 52.2567 100.307 54.5959 98.2537 56.5986C97.853 55.1043 98.2938 53.4842 98.5873 51.9371C98.8972 50.3024 98.9469 48.391 97.8024 47.2369C97.0303 46.4584 95.8977 46.2232 94.8298 46.0343C89.443 45.0816 84.0063 44.4361 78.5462 44.1008C77.8154 43.9999 77.0711 44.0759 76.3758 44.3225C75.047 44.9129 74.5132 46.5345 74.1281 47.9723C73.9437 45.4485 74.091 42.9115 74.5664 40.426C74.9307 38.5238 75.5045 36.6198 76.6091 35.0434Z" fill="#2F2E41"/>
<path d="M93.3633 123.143H78.1268C77.5977 123.143 77.0902 122.933 76.716 122.559C76.3418 122.185 76.1316 121.677 76.1316 121.148C76.1316 120.619 76.3418 120.111 76.716 119.737C77.0902 119.363 77.5977 119.153 78.1268 119.153H93.3633C93.8924 119.153 94.3999 119.363 94.7741 119.737C95.1483 120.111 95.3585 120.619 95.3585 121.148C95.3585 121.677 95.1483 122.185 94.7741 122.559C94.3999 122.933 93.8924 123.143 93.3633 123.143Z" fill="#6C63FF"/>
<path d="M43.3667 16.3701H1.45755C1.07136 16.3695 0.701181 16.2157 0.428317 15.9424C0.155453 15.6691 0.00219727 15.2987 0.00219727 14.9125C0.00219727 14.5263 0.155453 14.1559 0.428317 13.8826C0.701181 13.6093 1.07136 13.4554 1.45755 13.4548H43.3667C43.7533 13.4548 44.124 13.6084 44.3974 13.8818C44.6707 14.1551 44.8243 14.5259 44.8243 14.9125C44.8243 15.2991 44.6707 15.6698 44.3974 15.9432C44.124 16.2165 43.7533 16.3701 43.3667 16.3701Z" fill="#6C63FF"/>
<path d="M67.5636 25.68H1.45755C1.07099 25.68 0.70025 25.5264 0.426906 25.2531C0.153561 24.9797 0 24.609 0 24.2224C0 23.8359 0.153561 23.4651 0.426906 23.1918C0.70025 22.9185 1.07099 22.7649 1.45755 22.7649H67.5636C67.9502 22.7649 68.3209 22.9185 68.5943 23.1918C68.8676 23.4651 69.0212 23.8359 69.0212 24.2224C69.0212 24.609 68.8676 24.9797 68.5943 25.2531C68.3209 25.5264 67.9502 25.68 67.5636 25.68Z" fill="#6C63FF"/>
<path d="M54.8601 34.4509H1.45755C1.07099 34.4509 0.70025 34.2973 0.426906 34.024C0.153562 33.7506 0 33.3799 0 32.9933C0 32.6068 0.153562 32.236 0.426906 31.9627C0.70025 31.6893 1.07099 31.5358 1.45755 31.5358H54.8601C55.2467 31.5358 55.6174 31.6893 55.8908 31.9627C56.1641 32.236 56.3177 32.6068 56.3177 32.9933C56.3177 33.3799 56.1641 33.7506 55.8908 34.024C55.6174 34.2973 55.2467 34.4509 54.8601 34.4509Z" fill="#CACACA"/>
<path d="M31.5709 43.1894H1.45755C1.07099 43.1894 0.70025 43.0358 0.426906 42.7625C0.153562 42.4891 0 42.1184 0 41.7318C0 41.3453 0.153562 40.9745 0.426906 40.7012C0.70025 40.4279 1.07099 40.2743 1.45755 40.2743H31.5709C31.9575 40.2743 32.3282 40.4279 32.6015 40.7012C32.8749 40.9745 33.0284 41.3453 33.0284 41.7318C33.0284 42.1184 32.8749 42.4891 32.6015 42.7625C32.3282 43.0358 31.9575 43.1894 31.5709 43.1894Z" fill="#CACACA"/>
<path d="M48.2062 51.9273H1.45757C1.0714 51.9267 0.701265 51.7729 0.428417 51.4996C0.155569 51.2263 0.00231934 50.8559 0.00231934 50.4698C0.00231934 50.0836 0.155569 49.7132 0.428417 49.4399C0.701265 49.1666 1.0714 49.0128 1.45757 49.0122H48.2062C48.5924 49.0128 48.9625 49.1666 49.2353 49.4399C49.5082 49.7132 49.6614 50.0836 49.6614 50.4698C49.6614 50.8559 49.5082 51.2263 49.2353 51.4996C48.9625 51.7729 48.5924 51.9267 48.2062 51.9273Z" fill="#CACACA"/>
<path d="M179.957 194.528L176.201 194.528L174.414 180.039L179.957 180.04L179.957 194.528Z" fill="#9F616A"/>
<path d="M181.435 199.726L167.094 199.726V199.545C167.094 198.064 167.682 196.645 168.729 195.598C169.776 194.551 171.195 193.963 172.676 193.963H172.676L175.296 191.976L180.183 193.963L181.435 193.963L181.435 199.726Z" fill="#2F2E41"/>
<path d="M177.768 126.436L176.111 106.237L174.81 98.6554L182.097 97.0461L184.515 107.426L182.408 126.996C182.833 127.517 183.092 128.153 183.153 128.822C183.214 129.491 183.073 130.164 182.749 130.752C182.425 131.341 181.932 131.82 181.334 132.126C180.736 132.433 180.06 132.553 179.393 132.473C178.725 132.392 178.097 132.114 177.59 131.674C177.082 131.234 176.717 130.652 176.542 130.003C176.368 129.354 176.391 128.667 176.61 128.032C176.828 127.396 177.231 126.84 177.768 126.436Z" fill="#9F616A"/>
<path d="M160.004 194.528L156.248 194.528L154.461 180.039L160.005 180.04L160.004 194.528Z" fill="#9F616A"/>
<path d="M153.993 131.015L152.328 133.895C152.328 133.895 150.498 134.395 151.096 140.359C151.694 146.324 151.72 181.661 154.614 186.009L155.138 189.743L160.604 190.265L160.742 186.952L167.259 140.922C167.259 140.922 171.097 186.109 174.273 187.215L175.419 190.979L180.429 190.981L180.133 186.545L180.456 130.548L153.993 131.015Z" fill="#2F2E41"/>
<path d="M152.162 133.676L152.047 133.646C155.484 120.791 154.493 104.144 152.066 86.2691L152.066 86.1951L160.839 78.1594H168.457L176.009 83.0332C180.892 85.4743 182.001 90.6439 182.012 90.6959L182.019 90.7327L179.028 101.175L181.282 131.373L181.284 131.408L181.271 131.441C180.542 133.29 178.587 133.027 176.324 132.722C174.065 132.417 165.74 135.202 163.187 135.202C158.199 135.202 152.519 133.767 152.162 133.676Z" fill="#E4E4E4"/>
<path d="M174.428 87.1032L177.7 85.6794L182.012 90.9661L185.507 107.907L173.536 106.093L174.428 87.1032Z" fill="#E4E4E4"/>
<path d="M124.09 118.342L139.051 104.671L144.25 99.0017L149.982 103.78L143.253 112.044L126.486 122.354C126.334 123.009 125.99 123.603 125.498 124.061C125.006 124.519 124.388 124.819 123.724 124.923C123.06 125.027 122.38 124.93 121.771 124.644C121.163 124.359 120.654 123.898 120.309 123.321C119.965 122.744 119.8 122.077 119.838 121.406C119.875 120.735 120.112 120.09 120.519 119.555C120.925 119.02 121.482 118.618 122.119 118.402C122.755 118.186 123.441 118.165 124.09 118.342Z" fill="#9F616A"/>
<path d="M138.725 104.819L142.869 99.4382C142.903 99.361 146.341 91.6785 149.321 88.3405C152.378 84.9164 154.784 86.6675 154.808 86.6863L154.868 86.7315L155.035 99.3764L143.561 113.086L138.725 104.819Z" fill="#E4E4E4"/>
<path d="M170.786 70.5904C171.404 66.7833 168.818 63.1962 165.011 62.5783C161.204 61.9605 157.617 64.546 156.999 68.3531C156.381 72.1603 158.967 75.7474 162.774 76.3652C166.581 76.9831 170.168 74.3976 170.786 70.5904Z" fill="#9F616A"/>
<path d="M157.508 68.4351C157.508 68.4351 157.452 65.98 157.142 64.8936C156.831 63.8073 156.21 62.8761 156.521 62.8761C156.831 62.8761 156.986 62.1002 156.986 62.1002C156.986 62.1002 157.297 61.945 157.452 62.1002C157.607 62.2553 157.762 61.0138 157.762 61.0138C157.762 61.0138 157.917 60.5482 158.073 60.8586C158.228 61.169 158.228 61.0138 158.383 60.5482C158.538 60.0827 159.314 59.7723 159.314 59.7723C159.314 59.7723 162.263 59.9275 162.728 59.3067C163.194 58.6859 168.471 59.1515 169.557 59.9275C170.643 60.7034 175.454 63.4969 174.678 65.8248C173.902 68.1526 171.669 73.5125 171.109 74.0499C170.224 74.8997 169.611 75.2061 165.423 76.0395C164.603 76.2026 160.419 73.5269 160.419 73.0614C160.419 72.5958 160.924 71.1193 160.113 70.9166C158.887 70.6103 158.749 72.1597 158.439 71.6941C158.129 71.2285 157.508 68.4351 157.508 68.4351Z" fill="#2F2E41"/>
<path d="M161.482 199.726L147.141 199.726V199.545C147.141 198.064 147.73 196.645 148.776 195.598C149.823 194.551 151.243 193.963 152.723 193.963H152.724L155.343 191.976L160.23 193.963L161.482 193.963L161.482 199.726Z" fill="#2F2E41"/>
<path d="M236.028 200H1.20733C1.09277 200 0.982915 199.954 0.901909 199.873C0.820904 199.792 0.775391 199.683 0.775391 199.568C0.775391 199.453 0.820904 199.344 0.901909 199.263C0.982915 199.182 1.09277 199.136 1.20733 199.136H236.028C236.142 199.136 236.252 199.182 236.333 199.263C236.414 199.344 236.459 199.453 236.459 199.568C236.459 199.683 236.414 199.792 236.333 199.873C236.252 199.954 236.142 200 236.028 200Z" fill="#CACACA"/>
</g>
<defs>
<clipPath id="clip0_725_232">
<rect width="236.459" height="200" fill="white"/>
</clipPath>
</defs>
</svg>
