<svg width="30" height="30" viewBox="0 0 30 30" fill="none" xmlns="http://www.w3.org/2000/svg">
<path d="M20.625 15C20.625 14.15 20.55 13.325 20.45 12.5H24.675C24.875 13.3 25 14.1375 25 15C25 15.4625 24.9625 15.9125 24.9 16.35C25.7625 16.475 26.5625 16.75 27.3 17.15C27.425 16.45 27.5 15.7375 27.5 15C27.5 8.125 21.875 2.5 15 2.5C8.0875 2.5 2.5 8.125 2.5 15C2.5 21.875 8.125 27.5 15 27.5C15.7375 27.5 16.45 27.425 17.15 27.3C16.5563 26.2112 16.2467 24.9902 16.25 23.75C16.25 23.3875 16.2875 23.0375 16.3375 22.6875C15.9375 23.475 15.5 24.2375 15 24.95C13.9625 23.45 13.125 21.7875 12.6125 20H17.2625C18.0132 18.6954 19.1421 17.6494 20.5 17C20.575 16.3375 20.625 15.675 20.625 15ZM15 5.0375C16.0375 6.5375 16.875 8.2125 17.3875 10H12.6125C13.125 8.2125 13.9625 6.5375 15 5.0375ZM5.325 17.5C5.125 16.7 5 15.8625 5 15C5 14.1375 5.125 13.3 5.325 12.5H9.55C9.45 13.325 9.375 14.15 9.375 15C9.375 15.85 9.45 16.675 9.55 17.5H5.325ZM6.35 20H10C10.4375 21.5625 11 23.0625 11.75 24.45C9.47328 23.6646 7.55606 22.0846 6.35 20ZM10 10H6.35C7.54857 7.90902 9.46849 6.32686 11.75 5.55C11 6.9375 10.4375 8.4375 10 10ZM17.925 17.5H12.075C11.95 16.675 11.875 15.85 11.875 15C11.875 14.15 11.95 13.3125 12.075 12.5H17.925C18.0375 13.3125 18.125 14.15 18.125 15C18.125 15.85 18.0375 16.675 17.925 17.5ZM18.2375 5.55C20.5375 6.3375 22.45 7.925 23.65 10H19.9625C19.5713 8.45182 18.992 6.95737 18.2375 5.55ZM28.125 21.5625L22.1875 27.5L18.75 23.75L20.2 22.3L22.1875 24.2875L26.675 19.8L28.125 21.5625Z" fill="#4E6EF1"/>
</svg>
