<svg width="275" height="190" viewBox="0 0 275 190" fill="none" xmlns="http://www.w3.org/2000/svg">
<g clip-path="url(#clip0_724_2)">
<path d="M275 15H0C0.388415 12.9719 1.14697 11.0533 2.20715 9.31557C5.59331 3.76157 12.0503 0 19.4486 0H255.551C262.945 0 269.407 3.76157 272.788 9.31557C273.848 11.0533 274.612 12.9719 275 15Z" fill="#F2F2F2"/>
<path d="M175.082 76.0466H67.5655C66.5663 76.0466 65.7534 74.9236 65.7534 73.5431C65.7534 72.1626 66.5663 71.0396 67.5655 71.0396H175.082C176.081 71.0396 176.894 72.1626 176.894 73.5431C176.894 74.9236 176.081 76.0466 175.082 76.0466Z" fill="#E6E6E6"/>
<path d="M274.695 14.8904C274.307 12.8772 273.546 10.9726 272.488 9.24751C269.114 3.73409 262.666 0 255.289 0H19.7109C12.329 0 5.88639 3.73409 2.50775 9.24751C1.44993 10.9725 0.69306 12.8772 0.305508 14.8904C0.104888 15.9179 0 16.9747 0 18.0564V171.944C0 181.901 8.84097 190 19.7109 190H255.289C257.541 190 259.712 189.649 261.732 189.006C269.446 186.558 275 179.834 275 171.944V18.0564C275 16.9788 274.895 15.9179 274.695 14.8904ZM274.088 171.944C274.088 180.656 267.021 187.861 257.852 189.006C257.013 189.11 256.16 189.165 255.289 189.165H47.7111C21.863 189.165 0.91191 169.968 0.91191 146.289V18.0564C0.91191 16.9747 1.02133 15.9179 1.23108 14.8904C1.64145 12.8605 2.43937 10.96 3.55644 9.24751C6.83476 4.21026 12.8443 0.835367 19.7109 0.835367H255.289C262.156 0.835367 268.165 4.21026 271.444 9.24751C272.561 10.96 273.359 12.8605 273.769 14.8904C273.979 15.9179 274.088 16.9747 274.088 18.0564V171.944Z" fill="#3F3D56"/>
<path d="M119.277 116.728H93.419C91.8409 116.728 90.557 115.327 90.557 113.604V110.78C90.557 109.058 91.8409 107.656 93.419 107.656H119.277C120.855 107.656 122.139 109.058 122.139 110.78V113.604C122.139 115.327 120.855 116.728 119.277 116.728Z" fill="#6C63FF"/>
<path d="M253.701 36.0719H227.843C226.265 36.0719 224.981 34.6702 224.981 32.9474V30.1241C224.981 28.4013 226.265 27 227.843 27H253.701C255.279 27 256.563 28.4013 256.563 30.1241V32.9474C256.563 34.6702 255.279 36.0719 253.701 36.0719Z" fill="#6C63FF"/>
<path d="M157.637 116.937H131.779C130.095 116.937 128.726 115.441 128.726 113.604V110.78C128.726 108.943 130.095 107.448 131.779 107.448H157.637C159.32 107.448 160.69 108.943 160.69 110.78V113.604C160.69 115.441 159.32 116.937 157.637 116.937ZM131.779 108.282C130.517 108.282 129.49 109.403 129.49 110.78V113.604C129.49 114.981 130.517 116.102 131.779 116.102H157.637C158.898 116.102 159.925 114.981 159.925 113.604V110.78C159.925 109.403 158.898 108.282 157.637 108.282H131.779Z" fill="#6C63FF"/>
<path d="M189.354 63.1119H53.2932C52.0286 63.1119 51 61.9889 51 60.6084C51 59.2279 52.0286 58.1049 53.2932 58.1049H189.354C190.619 58.1049 191.647 59.2279 191.647 60.6084C191.647 61.9889 190.619 63.1119 189.354 63.1119Z" fill="#E6E6E6"/>
<path d="M38.5595 34.4814H21.3608C20.0963 34.4814 19.0676 33.3584 19.0676 31.9779C19.0676 30.5974 20.0963 29.4744 21.3608 29.4744H38.5595C39.824 29.4744 40.8527 30.5974 40.8527 31.9779C40.8527 33.3584 39.824 34.4814 38.5595 34.4814Z" fill="#E6E6E6"/>
<path d="M182.492 34.0394H165.293C164.029 34.0394 163 32.9164 163 31.5359C163 30.1554 164.029 29.0324 165.293 29.0324H182.492C183.756 29.0324 184.785 30.1554 184.785 31.5359C184.785 32.9164 183.756 34.0394 182.492 34.0394Z" fill="#E6E6E6"/>
<path d="M214.978 34.0394H197.78C196.515 34.0394 195.486 32.9164 195.486 31.5359C195.486 30.1554 196.515 29.0324 197.78 29.0324H214.978C216.243 29.0324 217.272 30.1554 217.272 31.5359C217.272 32.9164 216.243 34.0394 214.978 34.0394Z" fill="#E6E6E6"/>
<path d="M159.161 88.9813H83.4865C82.222 88.9813 81.1934 87.8583 81.1934 86.4778C81.1934 85.0973 82.222 83.9743 83.4865 83.9743H159.161C160.425 83.9743 161.454 85.0973 161.454 86.4778C161.454 87.8583 160.425 88.9813 159.161 88.9813Z" fill="#E6E6E6"/>
<path d="M162.458 143.747H80.1889C79.4243 143.747 78.8024 143.068 78.8024 142.234C78.8024 141.399 79.4243 140.72 80.1889 140.72H162.458C163.223 140.72 163.845 141.399 163.845 142.234C163.845 143.068 163.223 143.747 162.458 143.747Z" fill="#E6E6E6"/>
<path d="M178.656 8.02748H96.3866C95.622 8.02748 95 7.34846 95 6.51374C95 5.67901 95.622 5 96.3866 5H178.656C179.421 5 180.043 5.67901 180.043 6.51374C180.043 7.34846 179.421 8.02748 178.656 8.02748Z" fill="white"/>
<path d="M230.299 83.4199L229.005 78.2429L234.825 75.8896L235.472 80.5961L230.299 83.4199Z" fill="#FFB6B6"/>
<path opacity="0.1" d="M230.299 83.4199L229.005 78.2428L232.433 76.6646L231.368 82.7678L230.299 83.4199Z" fill="black"/>
<path d="M213.262 127.789C212.15 127.067 212.092 124.936 213.131 123.029C213.586 122.194 214.176 121.541 214.789 121.13L215.399 120.042L223.12 104.931C223.12 104.931 226.5 90.6789 227.876 88.9558C229.252 87.2326 231.241 87.6386 231.241 87.6386L233.006 89.3498L226.708 109.535L218.936 121.484L217.894 123.147C217.856 123.931 217.612 124.809 217.157 125.644C216.117 127.551 214.374 128.511 213.262 127.789Z" fill="#FFB6B6"/>
<path d="M229.981 81.9412C229.981 81.9412 232.436 81.8375 233.986 83.9201C235.535 86.0028 227.418 109.476 227.418 109.476L220.806 109.221L229.981 81.9412Z" fill="#6C63FF"/>
<path d="M230.622 79.0665C233.955 79.0665 236.658 76.1165 236.658 72.4775C236.658 68.8385 233.955 65.8885 230.622 65.8885C227.289 65.8885 224.587 68.8385 224.587 72.4775C224.587 76.1165 227.289 79.0665 230.622 79.0665Z" fill="#FFB6B6"/>
<path d="M216.504 168.135L212.408 179.196L210.037 176.607L209.175 171.665L212.624 166.959L216.504 168.135Z" fill="#FFB6B6"/>
<path d="M254.872 164.135L258.967 169.312L257.027 173.548L252.716 172.842L250.561 166.253L254.872 164.135Z" fill="#FFB6B6"/>
<path d="M227.604 102.363L227.066 111.894L240.43 109.305L239.568 103.422L227.604 102.363Z" fill="#FFB6B6"/>
<path d="M226.958 112.011L240.43 107.187C240.43 107.187 245.387 118.012 239.999 124.836C234.61 131.661 216.719 170.489 216.719 170.489L211.33 167.665L219.09 142.956L227.712 120.13L226.958 112.011Z" fill="#2F2E41"/>
<path d="M239.999 120.836L245.172 145.545L255.949 164.606L250.345 168.135L235.257 145.545L230.299 128.131L239.999 120.836Z" fill="#2F2E41"/>
<path d="M207.235 170.724H203.502C203.502 170.724 199.146 168.841 198.125 170.724C197.104 172.607 202.68 177.946 202.68 177.946C202.68 177.946 210.468 182.725 211.546 182.49C212.624 182.255 213.055 179.431 213.055 179.431L214.348 176.136L212.408 176.842C212.408 176.842 209.821 175.195 210.468 172.371L207.235 170.724Z" fill="#2F2E41"/>
<path d="M258.105 170.018V167.665L260.611 170.018C260.611 170.018 264.787 171.665 261.554 175.195C258.32 178.725 254.225 182.49 254.225 182.49C254.225 182.49 247.758 184.373 247.327 182.255C246.896 180.137 247.327 179.28 247.327 179.28L249.698 178.019L251.854 171.901L255.303 172.371L258.105 170.018Z" fill="#2F2E41"/>
<path d="M232.454 73.7717L230.514 73.5364L226.958 69.6536C226.958 69.6536 223.724 71.5362 223.724 70.1243C223.724 63.5353 227.389 63.7706 230.407 63.3C233.424 62.8293 233.101 62.7117 234.071 64.4766C234.515 65.2837 236.119 65.7708 236.119 65.7708C236.119 65.7708 239.136 61.2997 240.645 66.7121C242.154 72.1245 240.214 88.8323 241.723 90.2442C243.232 91.6562 235.528 93.066 236.362 87.537C237.196 82.008 238.705 73.5364 237.843 71.6539C236.981 69.7713 236.765 70.2419 236.765 70.2419C237.834 69.7657 238.532 78.1548 234.503 78.5655L234.394 74.4777C234.394 74.4777 233.748 72.3598 232.454 73.7717Z" fill="#2F2E41"/>
<path d="M229.76 81.8903L236.226 79.0665L244.849 107.305L227.109 106.6L225.511 98.1712C225.511 98.1712 223.952 93.7846 225.245 91.1961C226.538 88.6076 229.76 81.8903 229.76 81.8903Z" fill="#6C63FF"/>
<path d="M246.587 129.193C245.298 129.314 244.112 127.62 243.938 125.409C243.862 124.441 243.993 123.535 244.271 122.812L244.186 121.539L242.39 104.347C242.39 104.347 239.046 90.2844 239.244 88.0086C239.442 85.7329 239.754 85.1287 239.754 85.1287L242.102 85.3959L247.764 105.805L247.83 120.46L247.872 122.474C248.259 123.135 248.529 124.004 248.605 124.971C248.779 127.182 247.876 129.073 246.587 129.193Z" fill="#FFB6B6"/>
<path d="M235.688 81.302C235.688 81.302 237.628 79.6548 239.999 80.3607C242.37 81.0667 248.309 105.305 248.309 105.305L242.801 109.305L235.688 81.302Z" fill="#6C63FF"/>
</g>
<defs>
<clipPath id="clip0_724_2">
<rect width="275" height="190" fill="white"/>
</clipPath>
</defs>
</svg>
