<svg width="300" height="190" viewBox="0 0 300 190" fill="none" xmlns="http://www.w3.org/2000/svg">
<g clip-path="url(#clip0_724_2)">
<path d="M251.189 14.8639H0.279419C0.633809 12.8542 1.32591 10.953 2.29322 9.23103C5.38275 3.72743 11.2741 0 18.0243 0H233.444C240.19 0 246.086 3.72743 249.171 9.23103C250.138 10.953 250.835 12.8542 251.189 14.8639Z" fill="#F2F2F2"/>
<path d="M300 189.165C300 189.44 299.779 189.661 299.504 189.661H196.399C196.124 189.661 195.903 189.44 195.903 189.165C195.903 189.032 195.953 188.915 196.036 188.827H233.444C234.24 188.827 235.02 188.773 235.787 188.669H299.504C299.779 188.669 300 188.89 300 189.165Z" fill="#3F3D56"/>
<path d="M184.378 88.0325H67.0873C65.9972 88.0325 65.1105 86.9103 65.1105 85.5308C65.1105 84.1514 65.9972 83.0292 67.0873 83.0292H184.378C185.468 83.0292 186.355 84.1514 186.355 85.5308C186.355 86.9103 185.468 88.0325 184.378 88.0325Z" fill="#E6E6E6"/>
<path d="M251.189 14.8639C250.835 12.8542 250.138 10.953 249.171 9.23103C246.086 3.72743 240.19 0 233.444 0H18.0243C11.274 0 5.38269 3.72743 2.29316 9.23103C1.32586 10.953 0.633755 12.8542 0.279366 14.8639C0.0959126 15.8895 0 16.9444 0 18.0243V171.637C0 181.577 8.08445 189.661 18.0243 189.661H233.444C235.504 189.661 237.488 189.311 239.335 188.669C246.39 186.226 251.468 179.513 251.468 171.637V18.0243C251.468 16.9486 251.372 15.8895 251.189 14.8639ZM250.634 171.637C250.634 180.334 244.172 187.527 235.787 188.669C235.02 188.773 234.24 188.827 233.444 188.827H43.6285C19.9922 188.827 0.833878 169.665 0.833878 146.029V18.0243C0.833878 16.9444 0.933939 15.8895 1.12574 14.8639C1.50099 12.8375 2.23064 10.9405 3.25212 9.23103C6.24991 4.20275 11.7452 0.833878 18.0243 0.833878H233.444C239.723 0.833878 245.218 4.20275 248.216 9.23103C249.238 10.9405 249.967 12.8375 250.343 14.8639C250.534 15.8895 250.634 16.9444 250.634 18.0243V171.637Z" fill="#3F3D56"/>
<path d="M240.126 90.092L238.715 84.9187L245.064 82.5673L245.769 87.2702L240.126 90.092Z" fill="#FFB6B6"/>
<path opacity="0.1" d="M240.126 90.092L238.715 84.9187L242.454 83.3416L241.292 89.4403L240.126 90.092Z" fill="black"/>
<path d="M221.54 134.428C220.328 133.707 220.264 131.577 221.397 129.671C221.894 128.837 222.537 128.184 223.206 127.774L223.872 126.687L232.295 111.587C232.295 111.587 235.982 97.3455 237.483 95.6237C238.984 93.9018 241.154 94.3075 241.154 94.3075L243.079 96.0174L236.208 116.188L227.73 128.128L226.593 129.79C226.552 130.573 226.285 131.45 225.789 132.284C224.655 134.19 222.753 135.15 221.54 134.428Z" fill="#FFB6B6"/>
<path d="M239.779 88.6143C239.779 88.6143 242.458 88.5107 244.148 90.5918C245.838 92.6729 236.983 116.129 236.983 116.129L229.77 115.873L239.779 88.6143Z" fill="#6C63FF"/>
<path d="M240.479 85.7417C244.115 85.7417 247.063 82.7939 247.063 79.1576C247.063 75.5213 244.115 72.5735 240.479 72.5735C236.842 72.5735 233.895 75.5213 233.895 79.1576C233.895 82.7939 236.842 85.7417 240.479 85.7417Z" fill="#FFB6B6"/>
<path d="M225.077 174.745L220.609 185.797L218.022 183.21L217.082 178.272L220.844 173.569L225.077 174.745Z" fill="#FFB6B6"/>
<path d="M266.933 170.747L271.4 175.921L269.284 180.153L264.581 179.448L262.23 172.864L266.933 170.747Z" fill="#FFB6B6"/>
<path d="M237.187 109.021L236.599 118.545L251.178 115.958L250.237 110.079L237.187 109.021Z" fill="#FFB6B6"/>
<path d="M236.481 118.662L251.178 113.842C251.178 113.842 256.586 124.659 250.708 131.478C244.829 138.297 225.312 177.096 225.312 177.096L219.433 174.274L227.898 149.584L237.304 126.775L236.481 118.662Z" fill="#2F2E41"/>
<path d="M250.708 127.48L256.351 152.171L268.108 171.218L261.995 174.745L245.534 152.171L240.126 134.77L250.708 127.48Z" fill="#2F2E41"/>
<path d="M214.965 177.331H210.893C210.893 177.331 206.141 175.45 205.027 177.331C203.913 179.213 209.996 184.548 209.996 184.548C209.996 184.548 218.492 189.324 219.668 189.089C220.844 188.854 221.314 186.032 221.314 186.032L222.725 182.74L220.609 183.445C220.609 183.445 217.787 181.799 218.492 178.977L214.965 177.331Z" fill="#2F2E41"/>
<path d="M270.46 176.626V174.274L273.194 176.626C273.194 176.626 277.749 178.272 274.222 181.799C270.695 185.326 266.227 189.089 266.227 189.089C266.227 189.089 259.173 190.97 258.703 188.854C258.232 186.737 258.703 185.881 258.703 185.881L261.289 184.621L263.641 178.507L267.403 178.977L270.46 176.626Z" fill="#2F2E41"/>
<path d="M242.477 80.4509L240.361 80.2158L236.481 76.3359C236.481 76.3359 232.954 78.217 232.954 76.8062C232.954 70.2221 236.951 70.4572 240.244 69.9869C243.536 69.5166 243.183 69.399 244.241 71.1626C244.725 71.9692 246.475 72.456 246.475 72.456C246.475 72.456 249.767 67.9882 251.413 73.3965C253.059 78.8049 250.943 95.5003 252.589 96.9112C254.235 98.3221 245.83 99.7309 246.74 94.206C247.651 88.6811 249.297 80.2158 248.356 78.3346C247.416 76.4535 247.18 76.9237 247.18 76.9237C248.346 76.4478 249.108 84.8307 244.713 85.2412L244.594 81.1564C244.594 81.1564 243.888 79.0401 242.477 80.4509Z" fill="#2F2E41"/>
<path d="M239.538 88.5635L246.592 85.7417L255.998 113.959L236.646 113.254L234.903 104.832C234.903 104.832 233.202 100.449 234.613 97.8624C236.024 95.2758 239.538 88.5635 239.538 88.5635Z" fill="#6C63FF"/>
<path d="M257.895 135.832C256.489 135.952 255.195 134.259 255.006 132.05C254.923 131.083 255.065 130.177 255.369 129.454L255.276 128.182L253.316 111.003C253.316 111.003 249.669 96.9514 249.885 94.6773C250.1 92.4032 250.441 91.7995 250.441 91.7995L253.002 92.0665L259.179 112.46L259.251 127.105L259.296 129.117C259.719 129.777 260.014 130.646 260.097 131.613C260.287 133.822 259.301 135.711 257.895 135.832Z" fill="#FFB6B6"/>
<path d="M246.005 87.9756C246.005 87.9756 248.121 86.3296 250.708 87.035C253.294 87.7405 259.774 111.961 259.774 111.961L253.764 115.958L246.005 87.9756Z" fill="#6C63FF"/>
<path d="M123.5 128.684H95.2912C93.5697 128.684 92.1691 127.283 92.1691 125.562V122.741C92.1691 121.019 93.5697 119.619 95.2912 119.619H123.5C125.221 119.619 126.622 121.019 126.622 122.741V125.562C126.622 127.283 125.221 128.684 123.5 128.684Z" fill="#6C63FF"/>
<path d="M231.904 36.4868H203.695C201.974 36.4868 200.573 35.0861 200.573 33.3646V30.5434C200.573 28.8219 201.974 27.4216 203.695 27.4216H231.904C233.625 27.4216 235.026 28.8219 235.026 30.5434V33.3646C235.026 35.0861 233.625 36.4868 231.904 36.4868Z" fill="#6C63FF"/>
<path d="M165.347 128.892H137.138C135.302 128.892 133.808 127.398 133.808 125.562V122.741C133.808 120.904 135.302 119.41 137.138 119.41H165.347C167.183 119.41 168.677 120.904 168.677 122.741V125.562C168.677 127.398 167.183 128.892 165.347 128.892ZM137.138 120.244C135.762 120.244 134.642 121.364 134.642 122.741V125.562C134.642 126.938 135.762 128.059 137.138 128.059H165.347C166.723 128.059 167.843 126.938 167.843 125.562V122.741C167.843 121.364 166.723 120.244 165.347 120.244H137.138Z" fill="#6C63FF"/>
<path d="M199.948 75.1074H51.5176C50.1381 75.1074 49.016 73.9852 49.016 72.6057C49.016 71.2262 50.1381 70.1041 51.5176 70.1041H199.948C201.327 70.1041 202.449 71.2262 202.449 72.6057C202.449 73.9852 201.327 75.1074 199.948 75.1074Z" fill="#E6E6E6"/>
<path d="M42.0649 34.4558H23.3027C21.9232 34.4558 20.801 33.3337 20.801 31.9542C20.801 30.5747 21.9232 29.4526 23.3027 29.4526H42.0649C43.4444 29.4526 44.5665 30.5747 44.5665 31.9542C44.5665 33.3337 43.4444 34.4558 42.0649 34.4558Z" fill="#E6E6E6"/>
<path d="M154.222 34.4558H135.459C134.08 34.4558 132.958 33.3337 132.958 31.9542C132.958 30.5747 134.08 29.4526 135.459 29.4526H154.222C155.601 29.4526 156.723 30.5747 156.723 31.9542C156.723 33.3337 155.601 34.4558 154.222 34.4558Z" fill="#E6E6E6"/>
<path d="M189.661 34.4558H170.899C169.52 34.4558 168.397 33.3337 168.397 31.9542C168.397 30.5747 169.52 29.4526 170.899 29.4526H189.661C191.041 29.4526 192.163 30.5747 192.163 31.9542C192.163 33.3337 191.041 34.4558 189.661 34.4558Z" fill="#E6E6E6"/>
<path d="M167.01 100.958H84.4557C83.0763 100.958 81.9541 99.8354 81.9541 98.4559C81.9541 97.0765 83.0763 95.9543 84.4557 95.9543H167.01C168.389 95.9543 169.511 97.0765 169.511 98.4559C169.511 99.8354 168.389 100.958 167.01 100.958Z" fill="#E6E6E6"/>
<path d="M170.607 155.683H80.8584C80.0243 155.683 79.3458 155.005 79.3458 154.171C79.3458 153.337 80.0243 152.658 80.8584 152.658H170.607C171.441 152.658 172.12 153.337 172.12 154.171C172.12 155.005 171.441 155.683 170.607 155.683Z" fill="#E6E6E6"/>
<path d="M171.442 8.92074H81.6938C80.8597 8.92074 80.1812 8.24223 80.1812 7.40812C80.1812 6.57402 80.8597 5.89551 81.6938 5.89551H171.442C172.276 5.89551 172.955 6.57402 172.955 7.40812C172.955 8.24223 172.276 8.92074 171.442 8.92074Z" fill="white"/>
</g>
<defs>
<clipPath id="clip0_724_2">
<rect width="300" height="189.859" fill="white"/>
</clipPath>
</defs>
</svg>
