<svg width="255" height="200" viewBox="0 0 255 200" fill="none" xmlns="http://www.w3.org/2000/svg">
<g clip-path="url(#clip0_725_74)">
<path d="M230.628 0.130737H0.0983887V147.772H230.628V0.130737Z" fill="#E6E6E6"/>
<path d="M224.036 18.6486H6.69031V139.037H224.036V18.6486Z" fill="white"/>
<path d="M230.529 0H0V9.79374H230.529V0Z" fill="#6C63FF"/>
<path d="M7.27796 6.82228C8.28047 6.82228 9.09316 6.00959 9.09316 5.00709C9.09316 4.00458 8.28047 3.19189 7.27796 3.19189C6.27546 3.19189 5.46277 4.00458 5.46277 5.00709C5.46277 6.00959 6.27546 6.82228 7.27796 6.82228Z" fill="white"/>
<path d="M14.168 6.82228C15.1705 6.82228 15.9832 6.00959 15.9832 5.00709C15.9832 4.00458 15.1705 3.19189 14.168 3.19189C13.1655 3.19189 12.3528 4.00458 12.3528 5.00709C12.3528 6.00959 13.1655 6.82228 14.168 6.82228Z" fill="white"/>
<path d="M21.058 6.82228C22.0605 6.82228 22.8732 6.00959 22.8732 5.00709C22.8732 4.00458 22.0605 3.19189 21.058 3.19189C20.0555 3.19189 19.2428 4.00458 19.2428 5.00709C19.2428 6.00959 20.0555 6.82228 21.058 6.82228Z" fill="white"/>
<path d="M82.2868 31.1399H26.4392V126.546H82.2868V31.1399Z" fill="#E6E6E6"/>
<path d="M138.467 31.1399H91.9271V57.4015H138.467V31.1399Z" fill="#6C63FF"/>
<path d="M138.467 64.715H91.9271V92.9712H138.467V64.715Z" fill="#E6E6E6"/>
<path d="M138.467 100.285H91.9271V126.546H138.467V100.285Z" fill="#E6E6E6"/>
<path d="M204.287 31.1399H148.44V72.7174H204.287V31.1399Z" fill="#E6E6E6"/>
<path d="M204.287 84.9686H148.44V126.546H204.287V84.9686Z" fill="#E6E6E6"/>
<path d="M182.773 75.7044V66.7533C182.773 63.5722 184.036 60.5214 186.286 58.272C188.535 56.0226 191.586 54.7589 194.767 54.7589C197.948 54.7589 200.999 56.0226 203.248 58.272C205.498 60.5214 206.762 63.5722 206.762 66.7533V75.7044C206.761 76.1315 206.591 76.5411 206.289 76.8431C205.987 77.1452 205.577 77.3151 205.15 77.3156H184.384C183.957 77.3151 183.547 77.1452 183.245 76.8431C182.943 76.5411 182.773 76.1315 182.773 75.7044Z" fill="#2F2E41"/>
<path d="M212.503 192.192L208.272 193.363L201.743 177.602L207.987 175.875L212.503 192.192Z" fill="#FFB8B8"/>
<path d="M204.916 192.99L213.075 190.732L214.497 195.869L201.201 199.549C201.014 198.874 200.962 198.17 201.048 197.475C201.133 196.78 201.355 196.109 201.7 195.5C202.045 194.891 202.507 194.356 203.058 193.925C203.61 193.495 204.241 193.177 204.916 192.99Z" fill="#2F2E41"/>
<path d="M168.397 195.446H164.008L161.919 178.515H168.398L168.397 195.446Z" fill="#FFB8B8"/>
<path d="M160.872 194.192H169.338V199.522H155.542C155.542 198.822 155.68 198.129 155.948 197.482C156.216 196.835 156.608 196.248 157.103 195.753C157.598 195.258 158.186 194.865 158.832 194.598C159.479 194.33 160.172 194.192 160.872 194.192Z" fill="#2F2E41"/>
<path d="M163.104 100.824C163.417 101.247 163.82 101.596 164.282 101.847C164.745 102.097 165.257 102.243 165.783 102.275C166.308 102.306 166.834 102.222 167.324 102.028C167.813 101.834 168.254 101.535 168.615 101.152L180.284 106.401L179.222 99.8371L168.304 95.8595C167.621 95.2951 166.755 95.0009 165.869 95.0327C164.983 95.0645 164.14 95.42 163.499 96.0319C162.858 96.6439 162.464 97.4696 162.391 98.3528C162.318 99.236 162.572 100.115 163.104 100.824Z" fill="#FFB8B8"/>
<path d="M187.349 140.294C183.683 140.294 179.887 139.748 176.697 138.123C175.004 137.278 173.503 136.093 172.289 134.641C171.075 133.189 170.173 131.502 169.641 129.686C167.979 124.423 170.074 119.253 172.101 114.253C173.357 111.154 174.543 108.228 174.851 105.343L174.958 104.319C175.438 99.7191 175.852 95.7464 178.144 94.2563C179.332 93.484 180.929 93.4399 183.028 94.1214L202.736 100.524L202.011 137.936L201.892 137.976C201.789 138.01 194.841 140.294 187.349 140.294Z" fill="#2F2E41"/>
<path d="M182.683 82.4743C182.683 82.4743 192.35 79.61 199.869 80.6841C199.869 80.6841 195.573 104.315 197.005 112.192C198.437 120.069 172.121 115.235 177.492 107.716L179.282 98.7652C179.282 98.7652 175.701 95.1848 178.924 90.8883L182.683 82.4743Z" fill="#6C63FF"/>
<path d="M177.928 139.584L166.014 137.351L170.174 105.339C170.453 104.445 176.897 84.1635 179.823 83.0661C181.948 82.3178 184.121 81.7141 186.328 81.2591L186.751 81.1743L184.363 84.7579L174.851 107.549L177.928 139.584Z" fill="#2F2E41"/>
<path d="M171.72 191.523L156.326 188.958L164.965 153.682L177.82 105.44L177.947 106.297C177.957 106.361 179.158 112.663 196.977 109.867L197.134 109.842L197.177 109.995L218.714 186.092L201.174 189.016L185.175 133.495L171.72 191.523Z" fill="#2F2E41"/>
<path d="M193.057 145.575L193.066 145.304C193.077 145.004 194.136 115.095 193.783 103.067C193.428 90.9978 197.335 80.5459 197.375 80.4417L197.406 80.3578L197.493 80.333C202.548 78.8887 206.934 83.1992 206.978 83.2429L207.039 83.3045L205.599 95.1829L211.764 138.378L193.057 145.575Z" fill="#2F2E41"/>
<path d="M192.302 77.1072C197.159 77.1072 201.096 73.17 201.096 68.3133C201.096 63.4566 197.159 59.5194 192.302 59.5194C187.446 59.5194 183.509 63.4566 183.509 68.3133C183.509 73.17 187.446 77.1072 192.302 77.1072Z" fill="#FFB8B8"/>
<path d="M179.935 67.4694C179.938 64.9539 180.939 62.5422 182.717 60.7635C184.496 58.9847 186.908 57.9842 189.423 57.9813H191.214C193.729 57.9842 196.141 58.9847 197.92 60.7635C199.698 62.5422 200.699 64.9539 200.702 67.4694V67.6485H196.918L195.628 64.0352L195.37 67.6485H193.415L192.764 65.8254L192.633 67.6485H179.935V67.4694Z" fill="#2F2E41"/>
<path d="M191.437 78.3221C191.259 78.0816 191.153 77.7958 191.131 77.4977C191.109 77.1995 191.171 76.9011 191.311 76.6368C193.208 73.0284 195.864 66.361 192.338 62.2491L192.085 61.9536H202.32V77.3207L193.022 78.9613C192.928 78.9779 192.833 78.9864 192.737 78.9865C192.483 78.9865 192.233 78.9262 192.007 78.8107C191.781 78.6953 191.586 78.5278 191.437 78.3221Z" fill="#2F2E41"/>
<path d="M150.227 14.8754C143.065 8.83174 134.3 5.00016 125 3.84687C115.7 2.69358 106.265 4.26831 97.8436 8.37944C89.4221 12.4906 82.377 18.9608 77.5657 27.0029C72.7544 35.045 70.3843 44.3121 70.7438 53.6766C71.1034 63.0412 74.177 72.0993 79.5907 79.7488C85.0044 87.3984 92.5247 93.3095 101.237 96.7629C109.949 100.216 119.476 101.063 128.661 99.2001C137.845 97.3371 146.29 92.8449 152.968 86.2699L212.266 136.305C213.169 137.068 214.337 137.441 215.514 137.343C216.692 137.244 217.782 136.682 218.544 135.78C219.307 134.877 219.68 133.709 219.582 132.532C219.483 131.354 218.921 130.264 218.019 129.502L218.012 129.496L158.714 79.4606C165.602 69.574 168.551 57.4712 166.981 45.5241C165.411 33.577 159.436 22.6468 150.227 14.8754ZM146.404 74.6425C141.785 80.1173 135.646 84.0992 128.763 86.0849C121.88 88.0705 114.563 87.9705 107.737 85.7977C100.911 83.6248 94.8832 79.4767 90.4149 73.8778C85.9465 68.2789 83.2388 61.4807 82.634 54.3429C82.0293 47.2051 83.5548 40.0482 87.0176 33.7774C90.4803 27.5066 95.7248 22.4034 102.088 19.1132C108.451 15.823 115.647 14.4935 122.765 15.2929C129.884 16.0924 136.606 18.9848 142.081 23.6044C145.716 26.6717 148.711 30.4249 150.896 34.6498C153.08 38.8747 154.411 43.4886 154.813 48.2279C155.214 52.9672 154.678 57.7392 153.236 62.2715C151.793 66.8037 149.472 71.0074 146.404 74.6425Z" fill="#3F3D56"/>
<path opacity="0.3" d="M95.3664 78.9664C88.4182 73.103 83.9291 64.841 82.7906 55.821C81.652 46.801 83.9472 37.6827 89.2204 30.2766C88.5279 30.974 87.8584 31.7044 87.212 32.4678C84.1447 36.1029 81.8234 40.3066 80.3807 44.8388C78.938 49.371 78.4021 54.143 78.8036 58.8824C79.2051 63.6217 80.5362 68.2355 82.7208 72.4604C84.9054 76.6854 87.9008 80.4386 91.5359 83.5059C95.171 86.5732 99.3747 88.8945 103.907 90.3372C108.439 91.7799 113.211 92.3158 117.95 91.9143C122.69 91.5128 127.304 90.1817 131.529 87.9971C135.753 85.8125 139.507 82.8171 142.574 79.182C143.219 78.4177 143.826 77.6349 144.396 76.8336C137.983 83.2776 129.38 87.0741 120.297 87.4692C111.215 87.8643 102.315 84.8291 95.3664 78.9664Z" fill="black"/>
<path d="M195.126 116.198C195.637 116.323 196.17 116.334 196.686 116.231C197.202 116.128 197.689 115.913 198.113 115.601C198.537 115.289 198.888 114.888 199.14 114.426C199.393 113.965 199.541 113.453 199.574 112.928L211.903 109.506L206.891 105.136L195.952 109.056C195.066 109.058 194.211 109.386 193.551 109.976C192.89 110.567 192.469 111.379 192.367 112.26C192.265 113.14 192.49 114.027 192.998 114.753C193.507 115.479 194.264 115.993 195.126 116.198Z" fill="#FFB8B8"/>
<path d="M200.25 114.386L199.5 107.259L209.798 101.577L203.084 93.4495L204.179 84.3196L206.908 83.1504L206.992 83.2595C208.279 84.9137 219.562 99.4719 219.562 101.272C219.562 103.12 217.403 108.548 214.45 110.025C211.601 111.449 200.905 114.217 200.451 114.334L200.25 114.386Z" fill="#2F2E41"/>
<path d="M253.684 200H117.27C117.175 200 117.084 199.962 117.017 199.895C116.95 199.828 116.912 199.737 116.912 199.642C116.912 199.547 116.95 199.456 117.017 199.389C117.084 199.322 117.175 199.284 117.27 199.284H253.684C253.779 199.284 253.87 199.322 253.938 199.389C254.005 199.456 254.042 199.547 254.042 199.642C254.042 199.737 254.005 199.828 253.938 199.895C253.87 199.962 253.779 200 253.684 200Z" fill="#CCCCCC"/>
</g>
<defs>
<clipPath id="clip0_725_74">
<rect width="254.042" height="200" fill="white"/>
</clipPath>
</defs>
</svg>
