<svg width="325" height="200" viewBox="0 0 325 200" fill="none" xmlns="http://www.w3.org/2000/svg">
<g clip-path="url(#clip0_725_2)">
<path d="M32.7095 183.51C34.0549 183.983 35.4993 184.101 36.9037 183.854C38.3081 183.606 39.6252 183.001 40.7279 182.097C43.5364 179.74 44.4171 175.857 45.1334 172.262L47.2525 161.625L42.8159 164.68C39.6251 166.877 36.3627 169.145 34.1537 172.327C31.9446 175.509 30.9809 179.853 32.7553 183.296" fill="#E6E6E6"/>
<path d="M33.3945 197.127C32.8361 193.059 32.2615 188.938 32.6542 184.826C33.0021 181.174 34.1163 177.608 36.3846 174.683C37.5886 173.133 39.0536 171.806 40.7138 170.76C41.1467 170.486 41.5451 171.172 41.1141 171.444C38.2414 173.26 36.0195 175.941 34.7686 179.1C33.3871 182.614 33.1653 186.444 33.4032 190.177C33.5471 192.434 33.8527 194.676 34.1597 196.916C34.1839 197.017 34.1688 197.124 34.1173 197.215C34.0659 197.305 33.982 197.373 33.8826 197.404C33.7812 197.431 33.6731 197.417 33.5817 197.366C33.4904 197.314 33.4232 197.228 33.3948 197.127L33.3945 197.127Z" fill="#F2F2F2"/>
<path d="M37.4139 190.599C37.9908 191.476 38.7839 192.19 39.7168 192.672C40.6496 193.153 41.6908 193.387 42.74 193.349C45.4369 193.221 47.6843 191.34 49.7072 189.553L55.6918 184.269L51.7311 184.079C48.8828 183.943 45.9609 183.815 43.2479 184.694C40.5349 185.574 38.0329 187.687 37.5369 190.495" fill="#E6E6E6"/>
<path d="M31.8161 199.466C34.5045 194.709 37.6225 189.422 43.1945 187.733C44.7436 187.264 46.368 187.097 47.9801 187.239C48.4883 187.282 48.3614 188.066 47.8543 188.022C45.1519 187.798 42.4547 188.511 40.2168 190.042C38.0633 191.508 36.3865 193.546 34.9675 195.707C34.0981 197.031 33.3195 198.411 32.5408 199.789C32.292 200.229 31.5644 199.911 31.8161 199.466Z" fill="#F2F2F2"/>
<path d="M302.065 189.173C301.283 189.873 300.334 190.361 299.309 190.588C298.284 190.815 297.217 190.775 296.213 190.47C293.638 189.657 291.946 187.264 290.447 185.019L286.012 178.381L289.889 179.21C292.678 179.806 295.536 180.429 297.934 181.973C300.332 183.516 302.211 186.199 301.972 189.041" fill="#E6E6E6"/>
<path d="M305.21 199.176C303.827 193.89 302.164 187.982 297.209 184.924C295.831 184.076 294.303 183.498 292.708 183.223C292.206 183.136 292.128 183.925 292.63 184.013C295.3 184.487 297.725 185.866 299.497 187.918C301.204 189.886 302.305 192.285 303.124 194.736C303.626 196.239 304.027 197.772 304.427 199.303C304.555 199.792 305.34 199.671 305.21 199.176Z" fill="#F2F2F2"/>
<path d="M250.73 121.769H160.088C159.364 121.768 158.67 121.48 158.158 120.968C157.646 120.456 157.358 119.763 157.357 119.039V88.4605C157.358 87.7367 157.646 87.0428 158.158 86.5309C158.67 86.0191 159.364 85.7312 160.088 85.7303H250.73C251.454 85.7312 252.148 86.0191 252.66 86.5309C253.171 87.0427 253.459 87.7367 253.46 88.4605V119.039C253.459 119.763 253.171 120.456 252.66 120.968C252.148 121.48 251.454 121.768 250.73 121.769Z" fill="#F1F1F1"/>
<path d="M195.58 93.9209H171.554V96.6511H195.58V93.9209Z" fill="#6C63FF"/>
<path d="M227.25 97.1971C228.155 97.1971 228.888 96.4637 228.888 95.559C228.888 94.6543 228.155 93.9209 227.25 93.9209C226.346 93.9209 225.612 94.6543 225.612 95.559C225.612 96.4637 226.346 97.1971 227.25 97.1971Z" fill="#6C63FF"/>
<path d="M232.711 97.1971C233.615 97.1971 234.349 96.4637 234.349 95.559C234.349 94.6543 233.615 93.9209 232.711 93.9209C231.806 93.9209 231.073 94.6543 231.073 95.559C231.073 96.4637 231.806 97.1971 232.711 97.1971Z" fill="#6C63FF"/>
<path d="M238.171 97.1971C239.076 97.1971 239.809 96.4637 239.809 95.559C239.809 94.6543 239.076 93.9209 238.171 93.9209C237.266 93.9209 236.533 94.6543 236.533 95.559C236.533 96.4637 237.266 97.1971 238.171 97.1971Z" fill="#6C63FF"/>
<path d="M250.73 160.538H160.088C159.364 160.537 158.67 160.249 158.158 159.737C157.646 159.225 157.358 158.531 157.357 157.807V127.229C157.358 126.505 157.646 125.811 158.158 125.3C158.67 124.788 159.364 124.5 160.088 124.499H250.73C251.454 124.5 252.148 124.788 252.66 125.3C253.171 125.811 253.459 126.505 253.46 127.229V157.807C253.459 158.531 253.171 159.225 252.66 159.737C252.148 160.249 251.454 160.537 250.73 160.538Z" fill="#F1F1F1"/>
<path d="M195.58 132.69H171.554V135.42H195.58V132.69Z" fill="#6C63FF"/>
<path d="M227.25 135.966C228.155 135.966 228.888 135.232 228.888 134.328C228.888 133.423 228.155 132.69 227.25 132.69C226.346 132.69 225.612 133.423 225.612 134.328C225.612 135.232 226.346 135.966 227.25 135.966Z" fill="#6C63FF"/>
<path d="M232.711 135.966C233.615 135.966 234.349 135.232 234.349 134.328C234.349 133.423 233.615 132.69 232.711 132.69C231.806 132.69 231.073 133.423 231.073 134.328C231.073 135.232 231.806 135.966 232.711 135.966Z" fill="#6C63FF"/>
<path d="M238.171 135.966C239.076 135.966 239.809 135.232 239.809 134.328C239.809 133.423 239.076 132.69 238.171 132.69C237.266 132.69 236.533 133.423 236.533 134.328C236.533 135.232 237.266 135.966 238.171 135.966Z" fill="#6C63FF"/>
<path d="M250.73 199.306H160.088C159.364 199.306 158.67 199.018 158.158 198.506C157.646 197.994 157.358 197.3 157.357 196.576V165.998C157.358 165.274 157.646 164.58 158.158 164.068C158.67 163.557 159.364 163.269 160.088 163.268H250.73C251.454 163.269 252.148 163.557 252.66 164.068C253.171 164.58 253.459 165.274 253.46 165.998V196.576C253.459 197.3 253.171 197.994 252.66 198.506C252.148 199.018 251.454 199.306 250.73 199.306Z" fill="#F1F1F1"/>
<path d="M195.58 171.458H171.554V174.188H195.58V171.458Z" fill="#6C63FF"/>
<path d="M227.25 174.734C228.155 174.734 228.888 174.001 228.888 173.096C228.888 172.192 228.155 171.458 227.25 171.458C226.346 171.458 225.612 172.192 225.612 173.096C225.612 174.001 226.346 174.734 227.25 174.734Z" fill="#6C63FF"/>
<path d="M232.711 174.734C233.615 174.734 234.349 174.001 234.349 173.096C234.349 172.192 233.615 171.458 232.711 171.458C231.806 171.458 231.073 172.192 231.073 173.096C231.073 174.001 231.806 174.734 232.711 174.734Z" fill="#6C63FF"/>
<path d="M238.171 174.734C239.076 174.734 239.809 174.001 239.809 173.096C239.809 172.192 239.076 171.458 238.171 171.458C237.266 171.458 236.533 172.192 236.533 173.096C236.533 174.001 237.266 174.734 238.171 174.734Z" fill="#6C63FF"/>
<path d="M216.559 55.871L216.459 55.797L216.456 55.7952C216.327 55.6991 216.18 55.6295 216.024 55.5903C215.868 55.5511 215.705 55.543 215.546 55.5665C215.387 55.59 215.233 55.6447 215.095 55.7274C214.957 55.8101 214.836 55.9192 214.74 56.0485L194.338 83.5185H192.093V82.9911C192.093 82.861 192.042 82.7363 191.95 82.6443C191.858 82.5523 191.733 82.5006 191.603 82.5006H190.264C190.133 82.5006 190.009 82.5523 189.917 82.6443C189.825 82.7363 189.773 82.861 189.773 82.9911V83.5185H188.998V82.9911C188.998 82.861 188.946 82.7363 188.854 82.6443C188.762 82.5523 188.637 82.5006 188.507 82.5006H187.168C187.038 82.5006 186.913 82.5523 186.821 82.6443C186.729 82.7363 186.678 82.861 186.678 82.9911V83.5185H185.905V82.9911C185.905 82.861 185.853 82.7363 185.761 82.6443C185.669 82.5523 185.545 82.5006 185.414 82.5006H184.075C183.945 82.5006 183.82 82.5523 183.728 82.6443C183.636 82.7363 183.585 82.861 183.585 82.9911V83.5185H182.81V82.9911C182.81 82.861 182.758 82.7363 182.666 82.6443C182.574 82.5523 182.449 82.5006 182.319 82.5006H180.98C180.85 82.5006 180.725 82.5523 180.633 82.6443C180.541 82.7363 180.489 82.861 180.489 82.9911V83.5185H179.717V82.9911C179.717 82.861 179.665 82.7363 179.573 82.6443C179.481 82.5523 179.356 82.5006 179.226 82.5006H177.887C177.822 82.5006 177.759 82.5133 177.699 82.5379C177.64 82.5626 177.586 82.5987 177.54 82.6443C177.494 82.6898 177.458 82.7439 177.434 82.8034C177.409 82.8629 177.396 82.9267 177.396 82.9911V83.5185H176.621V82.9911C176.621 82.861 176.57 82.7363 176.478 82.6443C176.386 82.5523 176.261 82.5006 176.131 82.5006H174.791C174.661 82.5006 174.537 82.5523 174.445 82.6443C174.353 82.7363 174.301 82.861 174.301 82.9911V83.5185H173.526V82.9911C173.526 82.861 173.474 82.7363 173.382 82.6443C173.29 82.5523 173.165 82.5006 173.035 82.5006H171.696C171.566 82.5006 171.441 82.5523 171.349 82.6443C171.257 82.7363 171.205 82.861 171.205 82.9911V83.5185H170.433V82.9911C170.433 82.861 170.381 82.7363 170.289 82.6443C170.197 82.5523 170.072 82.5006 169.942 82.5006H168.603C168.473 82.5006 168.348 82.5523 168.256 82.6443C168.164 82.7363 168.113 82.861 168.113 82.9911V83.5185H167.337V82.9911C167.337 82.861 167.286 82.7363 167.194 82.6443C167.102 82.5523 166.977 82.5006 166.847 82.5006H165.508C165.378 82.5006 165.253 82.5523 165.161 82.6443C165.069 82.7363 165.017 82.861 165.017 82.9911V83.5185H164.244V82.9911C164.244 82.861 164.193 82.7363 164.101 82.6443C164.009 82.5523 163.884 82.5006 163.754 82.5006H162.415C162.285 82.5006 162.16 82.5523 162.068 82.6443C161.976 82.7363 161.924 82.861 161.924 82.9911V83.5185H160.953C160.792 83.5185 160.632 83.5502 160.484 83.6118C160.335 83.6735 160.2 83.7638 160.086 83.8777C159.972 83.9916 159.881 84.1268 159.82 84.2756C159.758 84.4244 159.726 84.5839 159.726 84.7449V85.9149C159.726 86.0759 159.758 86.2354 159.82 86.3842C159.881 86.533 159.972 86.6682 160.086 86.7821C160.2 86.896 160.335 86.9863 160.484 87.0479C160.632 87.1096 160.792 87.1413 160.953 87.1413H194.134C194.555 87.1412 194.962 86.9963 195.288 86.731C195.614 86.4657 195.838 86.0962 195.924 85.6847L195.936 85.6942L216.81 57.5892L216.812 57.5868C217.006 57.3257 217.088 56.9982 217.041 56.6765C216.993 56.3547 216.82 56.065 216.559 55.871Z" fill="#3F3D56"/>
<path d="M87.6178 188.89L91.7394 190.999L101.836 176.105L95.7533 172.992L87.6178 188.89Z" fill="#FFB7B7"/>
<path d="M87.255 187.006L95.3719 191.16L95.3722 191.16C96.744 191.862 97.7807 193.081 98.2543 194.547C98.7279 196.014 98.5995 197.608 97.8975 198.98L97.8115 199.148L84.5219 192.347L87.255 187.006Z" fill="#2F2E41"/>
<path d="M135.22 194.66H139.85L142.052 176.802H135.219L135.22 194.66Z" fill="#FFB7B7"/>
<path d="M134.039 193.148L143.157 193.148H143.157C144.698 193.148 146.176 193.76 147.266 194.85C148.355 195.94 148.968 197.418 148.968 198.959V199.147L134.039 199.148L134.039 193.148Z" fill="#2F2E41"/>
<path d="M113.563 48.9941C113.563 48.9941 110.462 46.6187 110.462 52.4209L109.973 71.5945L115.439 89.7075L118.621 83.833L117.316 71.105L113.563 48.9941Z" fill="#2F2E41"/>
<path d="M146.728 101.437C146.728 101.437 150.323 118.946 145.769 133.315L143.253 188.562L134.025 187.843L130.789 146.857L127.673 126.484L121.202 145.06L99.8701 184.368L90.0431 176.698C90.0431 176.698 100.933 146.984 108.978 140.746L113.013 94.7903L146.728 101.437Z" fill="#2F2E41"/>
<path d="M145.022 20.1099C147.81 15.0111 145.936 8.61809 140.837 5.83081C135.738 3.04352 129.345 4.91744 126.558 10.0163C123.77 15.1152 125.644 21.5081 130.743 24.2954C135.842 27.0827 142.235 25.2088 145.022 20.1099Z" fill="#FFB7B7"/>
<path d="M135.045 17.2948C136.307 17.4589 137.258 16.1684 137.699 14.9755C138.141 13.7826 138.477 12.3938 139.573 11.7494C141.072 10.869 142.989 11.9279 144.702 11.6374C146.637 11.3094 147.895 9.25888 147.993 7.29895C148.092 5.33903 147.312 3.45399 146.546 1.64695L146.279 3.89269C146.315 3.13155 146.155 2.37398 145.814 1.69243C145.473 1.01088 144.963 0.42816 144.333 0L144.678 3.29527C144.604 2.84064 144.442 2.40496 144.2 2.01322C143.958 1.62149 143.641 1.28142 143.267 1.01253C142.893 0.743644 142.47 0.551229 142.021 0.446332C141.573 0.341436 141.108 0.326122 140.654 0.40127L140.708 2.36472C138.473 2.09899 136.219 1.83289 133.978 2.03533C131.737 2.23777 129.48 2.94691 127.781 4.42299C125.24 6.63097 124.312 10.2667 124.623 13.6185C124.935 16.9704 126.319 20.1192 127.761 23.161C128.124 23.9263 128.625 24.7899 129.467 24.8874C130.223 24.975 130.914 24.3431 131.149 23.6193C131.33 22.8766 131.323 22.1005 131.129 21.3612C130.916 20.2314 130.648 19.0767 130.848 17.9446C131.048 16.8125 131.863 15.6937 133.004 15.555C134.145 15.4162 135.313 16.7207 134.764 17.7309L135.045 17.2948Z" fill="#2F2E41"/>
<path d="M147.379 106.12L112.258 103.854L114.901 92.9019L147.001 100.077L147.379 106.12Z" fill="#CBCBCB"/>
<path d="M125.72 29.4125L127.923 26.3541C127.923 26.3541 130.385 27.1908 136.979 30.4732L137.445 33.3387L148.891 103.741L128.086 102.844L122.42 102.723L120.566 98.5668L118.28 102.635L112.747 102.517L107.117 99.2536L112.665 82.2828L114.46 66.7807L111.686 52.1761C111.686 52.1761 108.195 38.765 121.64 31.5339L125.72 29.4125Z" fill="#2F2E41"/>
<path d="M172.614 82.7076C172.104 82.837 171.573 82.8532 171.056 82.755C170.54 82.6567 170.051 82.4464 169.625 82.1389C169.198 81.8314 168.845 81.4341 168.588 80.9751C168.332 80.5161 168.18 80.0065 168.142 79.4821L155.798 76.1759L160.764 71.767L171.724 75.5826C172.609 75.5772 173.465 75.8966 174.131 76.4804C174.796 77.0641 175.224 77.8716 175.334 78.7499C175.443 79.6281 175.227 80.5161 174.726 81.2455C174.224 81.975 173.473 82.4952 172.614 82.7076Z" fill="#FFB7B7"/>
<path d="M167.085 80.841C166.826 80.9823 166.539 81.0675 166.245 81.0908C165.95 81.1142 165.654 81.0753 165.375 80.9767L145.07 73.2699C140.116 71.5139 135.969 68.0183 133.399 63.4334L124.932 48.3281C124.337 47.6643 123.879 46.8899 123.584 46.049C123.289 45.2081 123.163 44.3173 123.213 43.4276C123.262 42.5379 123.487 41.6667 123.874 40.8639C124.261 40.061 124.802 39.3424 125.467 38.749C126.131 38.1556 126.907 37.6991 127.748 37.4057C128.59 37.1123 129.481 36.9876 130.37 37.039C131.26 37.0903 132.131 37.3165 132.933 37.7047C133.735 38.0929 134.453 38.6355 135.045 39.3014L149.701 62.5314L168.146 73.3452C168.507 73.5824 168.787 73.9249 168.948 74.3264C169.108 74.7279 169.142 75.1689 169.043 75.59L168.126 79.4768C168.028 79.8936 167.804 80.2704 167.486 80.5571C167.364 80.6672 167.23 80.7625 167.085 80.841Z" fill="#2F2E41"/>
<path d="M323.718 199.923H0.342921C0.251973 199.923 0.164749 199.887 0.100439 199.823C0.0361288 199.758 0 199.671 0 199.58C0 199.489 0.0361288 199.402 0.100439 199.338C0.164749 199.273 0.251973 199.237 0.342921 199.237H323.718C323.809 199.237 323.896 199.273 323.96 199.338C324.024 199.402 324.061 199.489 324.061 199.58C324.061 199.671 324.024 199.758 323.96 199.823C323.896 199.887 323.809 199.923 323.718 199.923Z" fill="#CBCBCB"/>
</g>
<defs>
<clipPath id="clip0_725_2">
<rect width="324.061" height="200" fill="white"/>
</clipPath>
</defs>
</svg>
