<svg width="406" height="308" viewBox="0 0 406 308" fill="none" xmlns="http://www.w3.org/2000/svg">
<g clip-path="url(#clip0_32_4)" filter="url(#filter0_d_32_4)">
<path d="M347.679 10.4973V185.548C347.68 186.925 347.41 188.289 346.884 189.562C346.358 190.835 345.587 191.991 344.614 192.966C343.641 193.941 342.486 194.715 341.214 195.243C339.942 195.771 338.579 196.044 337.202 196.045H43.4161C42.041 196.048 40.6786 195.781 39.4069 195.258C38.1351 194.735 36.9788 193.966 36.004 192.996C35.0293 192.026 34.2551 190.874 33.7258 189.604C33.1964 188.335 32.9222 186.974 32.9189 185.599V10.4973C32.9202 7.71365 34.0266 5.04441 35.9949 3.07608C37.9633 1.10776 40.6325 0.00135916 43.4161 9.53674e-07L337.181 9.53674e-07C339.965 9.53674e-07 342.635 1.10596 344.604 3.07458C346.573 5.04321 347.679 7.71323 347.679 10.4973Z" fill="white"/>
<path d="M249.154 188.997C249.154 188.997 249.707 190.689 249.154 191.95C248.641 193.292 248.2 194.661 247.831 196.05L232.798 195.625C232.798 195.625 232.378 191.781 235.079 190.099C237.78 188.418 243.408 187.465 244.11 186.44L249.154 188.997Z" fill="#25233A"/>
<path opacity="0.19" d="M347.679 115.773V185.548C347.68 186.925 347.41 188.289 346.884 189.562C346.358 190.835 345.587 191.991 344.614 192.966C343.641 193.941 342.486 194.715 341.214 195.243C339.942 195.771 338.579 196.044 337.202 196.045H263.29V126.685C263.289 123.977 264.292 121.364 266.105 119.351C267.918 117.339 270.412 116.069 273.106 115.788C272.593 115.198 272.127 114.594 271.676 113.963C268.667 109.827 263.418 100.211 265.012 94.8959C265.463 93.3992 266.786 92.0768 268.344 92.0614C270.271 92.0614 271.655 93.8451 272.706 95.4648L277.196 102.364C278.221 103.958 279.313 105.593 280.917 106.618C284.039 108.617 288.355 107.643 291.256 105.357C294.157 103.071 295.966 99.673 297.699 96.3926L301.599 88.9963C301.997 88.1063 302.569 87.3047 303.28 86.6385C303.841 86.2797 304.377 85.8842 304.885 85.4545C305.52 84.7676 305.689 83.7886 305.833 82.8609L307.494 72.2252C307.873 69.8213 308.273 67.3405 309.544 65.2749C310.815 63.2092 313.219 61.6254 315.613 62.0611C317.811 62.4558 319.441 64.4445 320.092 66.587C320.743 68.7296 320.605 71.0105 320.415 73.2504L319.57 84.8189L321.825 84.6036C322.912 87.4791 321.256 90.616 321.118 93.6914C320.948 97.2793 322.758 101.277 320.666 104.184C319.257 106.142 316.335 107.044 315.838 109.407C315.464 111.19 316.715 113.107 316.064 114.814C315.931 115.152 315.74 115.465 315.5 115.737H346.72C347.04 115.728 347.36 115.74 347.679 115.773Z" fill="url(#paint0_linear_32_4)"/>
<path opacity="0.18" d="M335.659 162.995H117.968C117.268 162.995 116.596 162.717 116.1 162.222C115.604 161.727 115.325 161.056 115.324 160.355C115.324 159.654 115.602 158.981 116.098 158.485C116.594 157.989 117.267 157.71 117.968 157.71H335.659C336.36 157.71 337.033 157.989 337.529 158.485C338.025 158.981 338.304 159.654 338.304 160.355C338.302 161.056 338.023 161.727 337.527 162.222C337.031 162.717 336.359 162.995 335.659 162.995Z" fill="white"/>
<path d="M358.842 288.87H286.33C284.218 288.87 285.018 296.61 283.342 295.569C282.998 295.354 278.216 290.136 277.883 289.885C275.32 287.881 275.382 281.417 275.382 277.917V155.332C275.381 153.894 275.663 152.471 276.213 151.142C276.763 149.813 277.568 148.606 278.585 147.589C279.601 146.572 280.807 145.765 282.135 145.214C283.463 144.663 284.887 144.379 286.325 144.379H358.842C366.387 144.666 368.55 149.919 368.647 150.447C368.745 150.975 373.486 159.428 373.486 159.991L369.791 277.917C369.791 279.355 369.508 280.779 368.959 282.108C368.409 283.437 367.602 284.644 366.586 285.662C365.569 286.679 364.362 287.486 363.033 288.036C361.704 288.587 360.28 288.87 358.842 288.87Z" fill="#25233A"/>
<path d="M364.629 155.506H292.142C286.093 155.506 281.189 160.41 281.189 166.46V289.044C281.189 295.094 286.093 299.998 292.142 299.998H364.629C370.678 299.998 375.582 295.094 375.582 289.044V166.46C375.582 160.41 370.678 155.506 364.629 155.506Z" fill="white"/>
<path d="M362.963 171.714H296.243C291.266 171.714 287.232 175.748 287.232 180.725V271.566C287.232 276.543 291.266 280.577 296.243 280.577H362.963C367.94 280.577 371.974 276.543 371.974 271.566V180.725C371.974 175.748 367.94 171.714 362.963 171.714Z" fill="url(#paint1_linear_32_4)"/>
<path d="M282.901 208.003C282.901 208.003 284.193 209.223 284.31 210.597C284.503 212.017 284.769 213.427 285.105 214.82L271.706 221.642C271.706 221.642 269.497 218.465 271.066 215.697C272.634 212.929 277.114 209.402 277.217 208.162L282.901 208.003Z" fill="#25233A"/>
<path d="M276.55 204.292L277.457 209.341L282.809 208.736L281.932 203.528L276.55 204.292Z" fill="url(#paint2_linear_32_4)"/>
<path d="M347.679 10.4973V16.648H32.9189V10.4973C32.9202 7.71365 34.0266 5.04441 35.9949 3.07608C37.9633 1.10776 40.6325 0.00135916 43.4161 9.53674e-07L337.181 9.53674e-07C339.965 9.53674e-07 342.635 1.10596 344.604 3.07458C346.573 5.04321 347.679 7.71323 347.679 10.4973Z" fill="url(#paint3_linear_32_4)"/>
<path opacity="0.57" d="M267.862 30.5692H115.841V149.023H267.862V30.5692Z" fill="#1F7A8C"/>
<path d="M208.564 107.408C208.584 109.502 208.385 111.593 207.969 113.645C207.129 117.121 205.073 120.17 203.054 123.128C202.1 121.804 200.833 120.736 199.366 120.021C197.9 119.305 196.279 118.964 194.648 119.027C189.881 118.833 185.155 119.591 180.445 120.519C173.161 121.944 165.908 123.769 158.568 123.107C154.852 122.769 151.203 121.8 147.471 121.667C140.224 121.395 133.289 124.271 126.374 126.46C125.288 126.803 123.75 126.931 123.355 125.86C123.232 125.385 123.268 124.882 123.458 124.43C124.666 120.508 125.546 116.493 126.087 112.426C126.887 105.516 126.19 98.5299 125.483 91.6104C124.719 84.0603 123.945 76.5051 122.874 68.991C121.761 61.2205 120.342 53.1374 122.694 45.6488C123.264 43.5972 124.319 41.7127 125.77 40.1542C126.995 39.0159 128.393 38.0784 129.911 37.3761C132.806 35.844 135.877 34.6701 139.055 33.8804C141.838 33.3016 144.66 32.9264 147.497 32.7579L162.095 31.5329C165.867 31.2151 169.701 30.9024 173.412 31.6354C177.426 32.4495 181.105 34.4451 183.976 37.3658C184.438 37.8323 184.935 38.3602 185.586 38.4268C186.129 38.4304 186.662 38.2793 187.123 37.9912C191.485 35.8999 196.211 35.9409 200.758 37.3505C205.022 38.6729 206.047 41.7944 206.206 46.1307C206.319 48.837 206.374 51.5416 206.37 54.2445C206.371 62.6842 205.857 71.1161 204.832 79.4934C204.233 84.3627 203.484 89.4525 205.201 94.0502C206.011 96.2029 207.334 98.1507 207.995 100.35C208.656 102.548 208.61 105.04 208.564 107.408Z" fill="#3F3D56"/>
<path d="M208.564 107.408C208.584 109.502 208.385 111.593 207.969 113.645C207.129 117.121 205.073 120.17 203.054 123.128C202.1 121.804 200.833 120.736 199.366 120.021C197.9 119.305 196.279 118.964 194.648 119.027C189.881 118.833 185.155 119.591 180.445 120.519L162.925 115.019L166.749 86.4078L182.926 49.206C182.926 49.206 200.096 40.6104 204.099 47.3403C204.863 48.6217 205.637 51.0974 206.37 54.2702C206.371 62.7098 205.857 71.1417 204.832 79.519C204.233 84.3883 203.484 89.4781 205.201 94.0758C206.011 96.2285 207.334 98.1763 207.995 100.375C208.656 102.574 208.61 105.04 208.564 107.408Z" fill="#25233A"/>
<path opacity="0.57" d="M107.809 30.5692H41.4069V93.5581H107.809V30.5692Z" fill="#1F7A8C"/>
<path opacity="0.57" d="M107.809 100.847H41.4069V163.836H107.809V100.847Z" fill="#1F7A8C"/>
<path opacity="0.18" d="M340.446 44.7467H285.746C285.045 44.7454 284.374 44.4661 283.879 43.9703C283.384 43.4744 283.106 42.8025 283.106 42.1019V42.1019C283.109 41.4031 283.388 40.7338 283.882 40.2402C284.377 39.7465 285.047 39.4687 285.746 39.4673H340.446C341.147 39.4673 341.819 39.7453 342.315 40.2402C342.81 40.7351 343.09 41.4065 343.091 42.107V42.107C343.09 42.8076 342.81 43.479 342.315 43.9739C341.819 44.4688 341.147 44.7467 340.446 44.7467V44.7467Z" fill="black"/>
<path opacity="0.18" d="M340.446 58.9447H285.746C285.045 58.9434 284.374 58.6641 283.879 58.1683C283.384 57.6724 283.106 57.0005 283.106 56.2999C283.109 55.6006 283.388 54.9308 283.882 54.4363C284.376 53.9419 285.046 53.6629 285.746 53.6602H340.446C341.147 53.6602 341.819 53.9381 342.315 54.433C342.81 54.9279 343.09 55.5993 343.091 56.2999C343.091 57.0013 342.812 57.6741 342.316 58.1701C341.82 58.6661 341.148 58.9447 340.446 58.9447Z" fill="black"/>
<path opacity="0.18" d="M340.446 73.112H285.746C285.045 73.1106 284.374 72.8314 283.879 72.3355C283.384 71.8396 283.106 71.1677 283.106 70.4671C283.109 69.7679 283.388 69.098 283.882 68.6036C284.376 68.1091 285.046 67.8301 285.746 67.8274H340.446C341.147 67.8274 341.819 68.1054 342.315 68.6003C342.81 69.0952 343.09 69.7666 343.091 70.4671V70.4671C343.091 71.1686 342.812 71.8413 342.316 72.3373C341.82 72.8333 341.148 73.112 340.446 73.112Z" fill="black"/>
<path opacity="0.18" d="M340.446 87.2946H285.746C285.045 87.2932 284.374 87.014 283.879 86.5181C283.384 86.0223 283.106 85.3503 283.106 84.6497C283.109 83.9505 283.388 83.2806 283.882 82.7862C284.376 82.2917 285.046 82.0127 285.746 82.01H340.446C341.147 82.01 341.819 82.288 342.315 82.7829C342.81 83.2778 343.09 83.9492 343.091 84.6497V84.6497C343.091 85.3512 342.812 86.0239 342.316 86.5199C341.82 87.0159 341.148 87.2946 340.446 87.2946Z" fill="black"/>
<path opacity="0.18" d="M340.446 101.487H285.746C285.045 101.486 284.374 101.207 283.879 100.711C283.384 100.215 283.106 99.5432 283.106 98.8426C283.109 98.1434 283.388 97.4735 283.882 96.9791C284.376 96.4846 285.046 96.2056 285.746 96.2029H340.446C341.147 96.2029 341.819 96.4809 342.315 96.9758C342.81 97.4706 343.09 98.1421 343.091 98.8426V98.8426C343.091 99.5441 342.812 100.217 342.316 100.713C341.82 101.209 341.148 101.487 340.446 101.487Z" fill="black"/>
<path opacity="0.18" d="M340.446 115.66H285.746C285.045 115.658 284.374 115.379 283.879 114.883C283.384 114.387 283.106 113.716 283.106 113.015V113.015C283.109 112.316 283.388 111.646 283.882 111.151C284.376 110.657 285.046 110.378 285.746 110.375H340.446C341.147 110.375 341.819 110.653 342.315 111.148C342.81 111.643 343.09 112.314 343.091 113.015V113.015C343.091 113.716 342.812 114.389 342.316 114.885C341.82 115.381 341.148 115.66 340.446 115.66V115.66Z" fill="black"/>
<path d="M295.346 123.845C295.346 123.845 270.943 124.809 266.986 128.879C263.029 132.949 245.356 182.698 245.356 182.698L254.013 185.942C254.013 185.942 272.004 150.673 273.465 149.038C274.925 147.403 294.357 147.926 300.861 145.491C307.365 143.056 314.388 135.829 314.388 135.829L295.346 123.845Z" fill="#25233A"/>
<path d="M310.205 91.7795L295.341 123.845C295.341 123.845 301.62 137.172 314.382 135.804L318.709 134.86L327.525 113.015L334.552 96.1927C334.552 96.1927 334.67 89.8933 329.862 89.5909C325.054 89.2884 317.786 83.8501 310.205 91.7795Z" fill="white"/>
<path d="M310.205 91.7795L295.341 123.845C295.341 123.845 301.62 137.172 314.382 135.804L318.709 134.86L327.525 113.015L334.552 96.1927C334.552 96.1927 334.67 89.8933 329.862 89.5909C325.054 89.2884 317.786 83.8501 310.205 91.7795Z" fill="url(#paint4_linear_32_4)"/>
<path d="M275.043 151.288L299.605 129.858L318.714 134.86C318.714 134.86 315.356 152.621 309.077 155.875C302.799 159.13 287.232 165.045 287.232 165.045L283.393 204.907L276.601 205.24C276.601 205.24 270.235 160.612 271.317 157.705C272.398 154.799 275.043 151.288 275.043 151.288Z" fill="#3F3D56"/>
<path d="M245.361 182.698L243.741 187.567L248.728 189.597L251.932 185.163L245.361 182.698Z" fill="url(#paint5_linear_32_4)"/>
<path d="M332.025 90.2674C332.025 90.2674 335.362 92.0512 336.925 98.0174C338.488 103.984 340.446 115.66 340.446 115.66L329.898 120.965L327.525 103.025C327.525 103.025 327.238 93.2403 332.025 90.2674Z" fill="white"/>
<path d="M332.025 90.2674C332.025 90.2674 335.362 92.0512 336.925 98.0174C338.488 103.984 340.446 115.66 340.446 115.66L329.898 120.965L327.525 103.025C327.525 103.025 327.238 93.2403 332.025 90.2674Z" fill="url(#paint6_linear_32_4)"/>
<path d="M338.288 152.964L329.898 120.965L338.381 116.695C338.381 116.695 344.465 151.811 344.839 152.17C345.213 152.528 349.257 154.389 353.87 155.881C359.037 157.546 354.655 158.059 350.236 158.182C345.818 158.305 339.677 159.043 338.288 152.964Z" fill="url(#paint7_linear_32_4)"/>
<path d="M317.54 66.5614C317.54 66.5614 314.034 74.8495 313.142 75.1161C312.25 75.3826 314.101 76.8434 314.101 76.8434C314.101 76.8434 314.029 79.0628 314.101 79.9188C314.172 80.7748 315.367 81.4565 317.36 81.7025C319.354 81.9485 316.848 88.4735 316.848 88.4735C316.848 88.4735 315.771 91.0363 323.163 89.1398L325.177 88.8989C325.177 88.8989 330.6 72.3534 330.549 70.4466C330.497 68.5399 321.374 60.3235 317.54 66.5614Z" fill="url(#paint8_linear_32_4)"/>
<path d="M313.434 58.5039C313.109 59.0136 312.925 59.5998 312.899 60.2036C312.872 60.8074 313.006 61.4074 313.286 61.9432C313.655 62.4369 313.997 62.9502 314.311 63.4809C314.427 63.8612 314.578 64.2301 314.762 64.5829C315.162 65.2082 315.93 65.3056 316.612 65.3518L320.4 65.608C321.38 65.5873 322.348 65.8223 323.209 66.2897C324.977 67.4379 325.326 70.2416 324.828 72.4866C324.608 73.4708 324.362 74.747 325.11 75.3006C325.162 74.8392 325.321 74.3966 325.577 74.0089C325.687 73.8393 325.86 73.72 326.057 73.6768C326.255 73.6336 326.462 73.6701 326.633 73.7783L326.684 73.8142C326.828 73.974 326.924 74.1712 326.961 74.3831C327.083 74.921 327.036 75.4837 326.825 75.9934C326.614 76.5031 326.249 76.9345 325.782 77.2278C325.5 77.3765 325.162 77.4841 325.008 77.7968C324.716 78.3862 325.331 78.9911 325.751 79.4729C326.103 79.8997 326.353 80.4016 326.481 80.9401C326.609 81.4786 326.612 82.0393 326.489 82.579C328.222 81.641 328.539 79.0474 329.401 77.1099C330.262 75.1725 332.056 73.522 332.276 71.2667C332.339 70.6449 332.271 70.0167 332.077 69.4227C331.883 68.8286 331.567 68.2817 331.148 67.8172C330.857 67.5856 330.639 67.2738 330.523 66.9202C330.519 66.4983 330.594 66.0794 330.743 65.6849C330.989 64.3933 329.882 63.322 328.867 62.6813C328.52 62.5072 328.231 62.2344 328.037 61.8971C327.161 60.0211 327.294 59.2471 325.187 58.6679C323.969 58.2984 322.686 58.197 321.425 58.3707C319.621 58.6526 318.944 58.8832 317.273 57.9862C315.92 57.2738 314.459 56.9919 313.434 58.5039Z" fill="#3F3D56"/>
<path d="M316.812 88.4632C316.812 88.4632 309.677 89.3141 303.752 96.1927C297.827 103.071 296.863 102.425 296.863 102.425L302.301 108.817C302.301 108.817 309.698 91.4822 316.812 88.4632Z" fill="white"/>
<path d="M316.812 88.4632C316.812 88.4632 309.677 89.3141 303.752 96.1927C297.827 103.071 296.863 102.425 296.863 102.425L302.301 108.817C302.301 108.817 309.698 91.4822 316.812 88.4632Z" fill="url(#paint9_linear_32_4)"/>
<path d="M302.312 108.817L298.98 116.7C298.98 116.7 292.891 120.883 285.746 115.675C278.6 110.468 275.043 91.2362 275.043 91.2362C275.043 91.2362 271.378 87.6124 267.867 86.4591C264.356 85.3058 271.322 83.4401 275.043 84.7728C278.764 86.1054 279.405 85.7108 279.405 85.7108C279.405 85.7108 281.158 83.9475 282.132 84.3115C283.106 84.6754 280.369 89.5909 280.369 89.5909C280.369 89.5909 285.361 107.992 289.164 108.817C292.968 109.642 295.515 109.591 297.299 107.279L299.077 104.978L302.312 108.817Z" fill="url(#paint10_linear_32_4)"/>
<path d="M335.362 285.441H320.877C318.787 285.441 317.094 287.135 317.094 289.224V289.229C317.094 291.318 318.787 293.012 320.877 293.012H335.362C337.451 293.012 339.144 291.318 339.144 289.229V289.224C339.144 287.135 337.451 285.441 335.362 285.441Z" fill="white"/>
<path d="M335.362 285.441H320.877C318.787 285.441 317.094 287.135 317.094 289.224V289.229C317.094 291.318 318.787 293.012 320.877 293.012H335.362C337.451 293.012 339.144 291.318 339.144 289.229V289.224C339.144 287.135 337.451 285.441 335.362 285.441Z" fill="url(#paint11_linear_32_4)"/>
<path d="M56.6659 9.53674e-07C55.0462 9.53674e-07 41.4069 0.476684 41.4069 16.6378V195.85C39.0176 195.382 36.8649 194.099 35.3167 192.22C33.7685 190.341 32.921 187.982 32.9189 185.548V10.4973C32.9202 7.71365 34.0266 5.04441 35.9949 3.07608C37.9633 1.10776 40.6325 0.00135916 43.4161 9.53674e-07L56.6659 9.53674e-07Z" fill="url(#paint12_linear_32_4)"/>
<path d="M126.087 118.428L115.836 123.845V149.023H228.6C228.6 149.023 218.195 119.56 176.175 116.7C148.128 114.814 151.526 114.599 140.952 114.681C135.768 114.719 130.67 116.004 126.087 118.428Z" fill="white"/>
<path d="M119.747 149.023C119.747 149.023 122.581 127.562 145.319 124.368C168.056 121.175 195.37 127.761 199.286 129.858C219.317 140.56 218.682 149.023 218.682 149.023H119.747Z" fill="url(#paint13_linear_32_4)"/>
<path d="M184.315 108.812C179.353 108.812 175.985 108.73 173.689 108.858C169.589 109.089 168.907 109.965 168.681 113.015C168.384 117.013 173.607 128.315 171.921 132.58C171.787 132.975 171.552 133.328 171.239 133.604C170.926 133.88 170.546 134.069 170.137 134.153C170.137 134.153 150.27 134.153 136.528 115.019C136.528 115.019 146.211 105.403 145.314 91.7744C144.417 78.1453 139.527 55.7925 144.396 53.3885C149.265 50.9846 191.952 41.5176 198.359 58.6782C204.766 75.8388 198.21 108.853 184.315 108.812Z" fill="url(#paint14_linear_32_4)"/>
<path d="M162.3 60.2979C160.506 64.911 160.726 70.1493 160.373 75.1622C160.019 80.1751 158.763 85.6595 155.114 88.4888C154.294 89.1244 153.351 89.6165 152.72 90.493C151.111 92.7226 152.208 96.0696 151.818 98.9297C151.085 104.322 145.498 106.68 142.638 111.036C140.89 113.702 140.198 117.115 138.512 119.832C136.826 122.549 133.32 124.414 131.044 122.333C129.875 121.262 129.414 119.484 129.045 117.818C124.457 97.1713 123.084 75.9403 124.975 54.875C125.662 47.2685 127.4 38.6421 133.284 35.0644C135.606 33.6549 138.276 33.2551 140.885 32.8758C155.929 30.7025 172.331 28.8368 185.232 38.0014C186.421 38.842 187.61 39.8364 188.195 41.2869C191.224 48.8165 179.266 48.3808 176.16 49.165C170.486 50.5643 164.781 53.9319 162.3 60.2979Z" fill="#3F3D56"/>
<path d="M171.921 132.579C171.412 132.738 170.866 132.738 170.357 132.579C169.296 132.267 168.558 131.344 167.902 130.457C164.565 125.988 161.444 121.067 160.793 115.527C160.542 113.394 160.752 111.011 162.249 109.468C163.453 108.233 165.247 107.787 166.964 107.592C168.594 107.408 168.256 107.73 171.839 107.92C172.49 107.956 178.687 108.366 179.271 108.761C169.983 108.889 168.907 109.94 168.681 112.989C168.384 117.013 173.607 128.315 171.921 132.579Z" fill="url(#paint15_linear_32_4)"/>
<path d="M218.682 149.023C218.682 149.023 225.955 135.112 230.471 134.158C234.986 133.205 236.447 129.617 239.574 128.884C242.701 128.151 243.054 130.493 243.715 135.809C244.377 141.124 239.651 149.028 239.651 149.028L218.682 149.023Z" fill="url(#paint16_linear_32_4)"/>
<path d="M362.261 182.698H296.668C293.67 182.698 291.24 185.128 291.24 188.126V202.575C291.24 205.573 293.67 208.003 296.668 208.003H362.261C365.259 208.003 367.689 205.573 367.689 202.575V188.126C367.689 185.128 365.259 182.698 362.261 182.698Z" fill="white"/>
<path d="M360.462 213.851H309.062C308.125 213.851 307.365 214.611 307.365 215.548V216.163C307.365 217.1 308.125 217.86 309.062 217.86H360.462C361.399 217.86 362.158 217.1 362.158 216.163V215.548C362.158 214.611 361.399 213.851 360.462 213.851Z" fill="white"/>
<path d="M360.462 230.725H309.062C308.125 230.725 307.365 231.485 307.365 232.422V233.037C307.365 233.974 308.125 234.733 309.062 234.733H360.462C361.399 234.733 362.158 233.974 362.158 233.037V232.422C362.158 231.485 361.399 230.725 360.462 230.725Z" fill="white"/>
<path d="M360.462 247.599H309.062C308.125 247.599 307.365 248.358 307.365 249.295V249.91C307.365 250.847 308.125 251.607 309.062 251.607H360.462C361.399 251.607 362.158 250.847 362.158 249.91V249.295C362.158 248.358 361.399 247.599 360.462 247.599Z" fill="white"/>
<path d="M360.462 263.806H309.062C308.125 263.806 307.365 264.565 307.365 265.502V266.117C307.365 267.054 308.125 267.814 309.062 267.814H360.462C361.399 267.814 362.158 267.054 362.158 266.117V265.502C362.158 264.565 361.399 263.806 360.462 263.806Z" fill="white"/>
</g>
<defs>
<filter id="filter0_d_32_4" x="-4" y="0" width="414" height="314" filterUnits="userSpaceOnUse" color-interpolation-filters="sRGB">
<feFlood flood-opacity="0" result="BackgroundImageFix"/>
<feColorMatrix in="SourceAlpha" type="matrix" values="0 0 0 0 0 0 0 0 0 0 0 0 0 0 0 0 0 0 127 0" result="hardAlpha"/>
<feOffset dy="4"/>
<feGaussianBlur stdDeviation="2"/>
<feComposite in2="hardAlpha" operator="out"/>
<feColorMatrix type="matrix" values="0 0 0 0 0 0 0 0 0 0 0 0 0 0 0 0 0 0 0.25 0"/>
<feBlend mode="normal" in2="BackgroundImageFix" result="effect1_dropShadow_32_4"/>
<feBlend mode="normal" in="SourceGraphic" in2="effect1_dropShadow_32_4" result="shape"/>
</filter>
<linearGradient id="paint0_linear_32_4" x1="263.29" y1="129.017" x2="347.679" y2="129.017" gradientUnits="userSpaceOnUse">
<stop stop-color="#183866"/>
<stop offset="1" stop-color="#1A7FC1"/>
</linearGradient>
<linearGradient id="paint1_linear_32_4" x1="328.811" y1="117.115" x2="329.78" y2="250.725" gradientUnits="userSpaceOnUse">
<stop offset="0.02" stop-color="#1F7A8C"/>
<stop offset="1" stop-color="white"/>
</linearGradient>
<linearGradient id="paint2_linear_32_4" x1="285.551" y1="204.824" x2="276.045" y2="206.074" gradientUnits="userSpaceOnUse">
<stop stop-color="#ECC4D7"/>
<stop offset="0.42" stop-color="#EFD4D1"/>
<stop offset="1" stop-color="#F2EAC9"/>
</linearGradient>
<linearGradient id="paint3_linear_32_4" x1="189.558" y1="-66.1308" x2="190.681" y2="54.6341" gradientUnits="userSpaceOnUse">
<stop offset="0.01"/>
<stop offset="0.97" stop-opacity="0"/>
</linearGradient>
<linearGradient id="paint4_linear_32_4" x1="328.647" y1="118.602" x2="306.925" y2="104.845" gradientUnits="userSpaceOnUse">
<stop offset="0.01"/>
<stop offset="0.97" stop-opacity="0"/>
</linearGradient>
<linearGradient id="paint5_linear_32_4" x1="255.151" y1="189.243" x2="243.992" y2="184.933" gradientUnits="userSpaceOnUse">
<stop stop-color="#ECC4D7"/>
<stop offset="0.42" stop-color="#EFD4D1"/>
<stop offset="1" stop-color="#F2EAC9"/>
</linearGradient>
<linearGradient id="paint6_linear_32_4" x1="344.044" y1="105.07" x2="326.669" y2="105.793" gradientUnits="userSpaceOnUse">
<stop offset="0.01"/>
<stop offset="0.97" stop-opacity="0"/>
</linearGradient>
<linearGradient id="paint7_linear_32_4" x1="383.22" y1="153.743" x2="323.465" y2="130.657" gradientUnits="userSpaceOnUse">
<stop stop-color="#ECC4D7"/>
<stop offset="0.42" stop-color="#EFD4D1"/>
<stop offset="1" stop-color="#F2EAC9"/>
</linearGradient>
<linearGradient id="paint8_linear_32_4" x1="338.196" y1="83.9475" x2="312.266" y2="73.9321" gradientUnits="userSpaceOnUse">
<stop stop-color="#ECC4D7"/>
<stop offset="0.42" stop-color="#EFD4D1"/>
<stop offset="1" stop-color="#F2EAC9"/>
</linearGradient>
<linearGradient id="paint9_linear_32_4" x1="313.234" y1="100.329" x2="301.169" y2="94.778" gradientUnits="userSpaceOnUse">
<stop offset="0.01"/>
<stop offset="0.97" stop-opacity="0"/>
</linearGradient>
<linearGradient id="paint10_linear_32_4" x1="266.909" y1="101.277" x2="302.312" y2="101.277" gradientUnits="userSpaceOnUse">
<stop stop-color="#ECC4D7"/>
<stop offset="0.42" stop-color="#EFD4D1"/>
<stop offset="1" stop-color="#F2EAC9"/>
</linearGradient>
<linearGradient id="paint11_linear_32_4" x1="328.201" y1="281.484" x2="328.058" y2="294.759" gradientUnits="userSpaceOnUse">
<stop offset="0.01"/>
<stop offset="0.97" stop-opacity="0"/>
</linearGradient>
<linearGradient id="paint12_linear_32_4" x1="162.633" y1="96.6027" x2="9.29483" y2="98.289" gradientUnits="userSpaceOnUse">
<stop offset="0.01"/>
<stop offset="0.97" stop-opacity="0"/>
</linearGradient>
<linearGradient id="paint13_linear_32_4" x1="174.555" y1="215.158" x2="165.719" y2="105.532" gradientUnits="userSpaceOnUse">
<stop offset="0.01"/>
<stop offset="0.97" stop-opacity="0"/>
</linearGradient>
<linearGradient id="paint14_linear_32_4" x1="181.029" y1="8.01649" x2="162.438" y2="127.951" gradientUnits="userSpaceOnUse">
<stop stop-color="#ECC4D7"/>
<stop offset="0.42" stop-color="#EFD4D1"/>
<stop offset="1" stop-color="#F2EAC9"/>
</linearGradient>
<linearGradient id="paint15_linear_32_4" x1="163.833" y1="104.163" x2="188.025" y2="143.097" gradientUnits="userSpaceOnUse">
<stop stop-color="#ECC4D7"/>
<stop offset="0.42" stop-color="#EFD4D1"/>
<stop offset="1" stop-color="#F2EAC9"/>
</linearGradient>
<linearGradient id="paint16_linear_32_4" x1="218.682" y1="138.889" x2="243.777" y2="138.889" gradientUnits="userSpaceOnUse">
<stop stop-color="#ECC4D7"/>
<stop offset="0.42" stop-color="#EFD4D1"/>
<stop offset="1" stop-color="#F2EAC9"/>
</linearGradient>
<clipPath id="clip0_32_4">
<rect width="406" height="306" fill="white"/>
</clipPath>
</defs>
</svg>
