<svg width="229" height="200" viewBox="0 0 229 200" fill="none" xmlns="http://www.w3.org/2000/svg">
<g clip-path="url(#clip0_724_108)">
<path d="M160.066 197.025L156.595 197.025L154.944 183.636L160.067 183.636L160.066 197.025Z" fill="#FFB6B6"/>
<path d="M148.174 196.946C148.066 197.128 148.009 197.716 148.009 197.927C148.009 198.578 148.536 199.105 149.187 199.105H159.936C160.38 199.105 160.74 198.746 160.74 198.302V197.854C160.74 197.854 161.272 196.509 160.177 194.851C160.177 194.851 158.816 196.149 156.783 194.116L156.184 193.03L151.843 196.204L149.438 196.5C148.911 196.565 148.445 196.49 148.174 196.946Z" fill="#2F2E41"/>
<path d="M196.708 192.683L193.536 194.093L186.589 182.529L191.27 180.448L196.708 192.683Z" fill="#FFB6B6"/>
<path d="M185.81 197.442C185.785 197.652 185.971 198.212 186.057 198.406C186.322 199 187.018 199.268 187.612 199.004L197.435 194.637C197.841 194.456 198.023 193.981 197.843 193.576L197.661 193.167C197.661 193.167 197.601 191.722 195.927 190.651C195.927 190.651 195.211 192.39 192.527 191.359L191.538 190.61L188.861 195.273L186.783 196.521C186.329 196.794 185.872 196.915 185.81 197.442Z" fill="#2F2E41"/>
<path d="M152.523 113.25L149.436 119.73L154.683 187.008H161.244L163.941 142.876L187.488 187.008H195.536L183.384 155.529L175.051 114.484L152.523 113.25Z" fill="#2F2E41"/>
<path d="M169.047 71.6872H160.909L157.924 76.3703L151.193 79.5899L152.656 99.7857L151.922 114.511L152.928 114.482C160.11 114.272 167.288 115.44 173.953 118.124C175.663 118.812 177.455 119.196 178.998 118.811C178.998 118.811 178.413 116.469 177.828 115.884C177.242 115.298 176.949 114.814 177.242 114.471C177.535 114.128 178.12 113.835 177.535 113.25C176.949 112.664 176.949 111.927 176.949 111.927L175.193 98.9076L178.706 80.468L171.388 76.3703L169.047 71.6872Z" fill="#6C63FF"/>
<path d="M183.031 97.2191L182.809 114.491L178.511 129.888L175.076 128.607L176.601 114.494L176.401 95.3953L183.031 97.2191Z" fill="#FFB6B6"/>
<path d="M178.497 132.371C178.9 130.157 178.161 128.168 176.846 127.929C175.532 127.69 174.139 129.29 173.736 131.504C173.333 133.718 174.072 135.707 175.386 135.947C176.701 136.186 178.093 134.585 178.497 132.371Z" fill="#FFB6B6"/>
<path d="M176.95 79.5899C176.95 79.5899 181.799 80.3412 181.862 84.5023C181.925 88.6634 186.608 95.3953 183.681 100.664L176.071 101.835L171.974 86.9072L176.657 79.0045" fill="#6C63FF"/>
<path d="M154.817 94.1773L145.153 108.495L133.111 119.009L130.943 116.052L139.962 105.091L150.275 89.0143L154.817 94.1773Z" fill="#FFB6B6"/>
<path d="M131.737 121.076C133.289 119.446 133.762 117.378 132.795 116.457C131.827 115.535 129.785 116.11 128.233 117.739C126.681 119.369 126.207 121.437 127.175 122.358C128.142 123.28 130.185 122.706 131.737 121.076Z" fill="#FFB6B6"/>
<path d="M159.407 76.1023C159.407 76.1023 163.048 79.3913 160.818 82.9047C158.587 86.4181 158.808 94.6157 153.47 97.414L146.466 94.2168C147.056 88.4448 147.4 82.4603 151.232 79.4892L159.483 75.4523" fill="#6C63FF"/>
<path d="M163.715 70.4809C167.737 70.4809 170.997 67.2208 170.997 63.1994C170.997 59.1779 167.737 55.9178 163.715 55.9178C159.694 55.9178 156.434 59.1779 156.434 63.1994C156.434 67.2208 159.694 70.4809 163.715 70.4809Z" fill="#FFB6B6"/>
<path d="M169.063 69.1822C169.464 69.2506 169.935 68.2784 170.385 67.3315C171.327 65.3495 171.926 64.0895 171.971 62.3084C172.01 60.7904 171.588 61.1889 171.178 57.814C171.043 56.7009 169.141 56.7031 168.754 56.1745C168.1 55.2817 169.103 54.9135 167.477 54.3771C164.43 53.3726 163.052 54.9331 161.118 55.0676C161.069 55.071 160.109 56.009 159.574 56.0575C158.635 56.1425 157.281 55.9963 156.674 54.5663C156.107 53.2293 155.731 57.1365 156.238 57.62C156.669 58.0305 157.412 59.061 157.431 59.1359C157.452 59.2207 155.664 57.24 155.365 58.0562C155.151 58.6437 155.827 61.6661 156.373 61.7797C156.83 61.8746 157.947 60.369 157.695 60.9865C157.11 62.4186 160.625 63.3324 164.833 60.4578C164.982 60.3558 164.841 60.5184 165.362 61.7797C166.018 63.3704 166.166 63.4565 166.155 63.8947C166.13 64.8431 165.418 65.1223 165.626 65.7453C165.795 66.2498 166.454 66.6404 166.948 66.5384C167.506 66.4233 167.602 65.733 168.006 65.7453C168.352 65.7558 168.762 66.2769 168.799 66.8028C168.876 67.9107 167.236 68.2155 166.948 69.7109C166.786 70.5549 168.694 69.1193 169.063 69.1822Z" fill="#2F2E41"/>
<path d="M111.42 199.437H48.853C39.4688 199.437 31.834 191.802 31.834 182.418V17.0191C31.834 7.63477 39.4688 0 48.853 0H111.42C120.804 0 128.439 7.63477 128.439 17.0191C129.604 83.4382 131.59 157.817 128.439 182.418C128.439 191.802 120.804 199.437 111.42 199.437Z" fill="#3F3D56"/>
<path d="M129.312 60.8391C128.915 60.8391 128.592 61.162 128.592 61.5591V84.5987C128.592 84.9958 128.915 85.3187 129.312 85.3187C129.709 85.3187 130.032 84.9958 130.032 84.5987V61.5591C130.032 61.162 129.709 60.8391 129.312 60.8391Z" fill="#3F3D56"/>
<path d="M126.819 17.0192V182.415C126.819 190.583 120.462 197.265 112.423 197.783H112.42C112.301 197.79 112.182 197.798 112.06 197.801C111.847 197.812 111.635 197.816 111.419 197.816C111.419 197.816 110.627 197.758 109.18 197.65C107.718 197.542 105.59 197.38 102.937 197.168C102.142 197.106 101.303 197.038 100.417 196.966C98.6533 196.822 96.7165 196.664 94.6394 196.484C93.8114 196.415 92.9546 196.34 92.0798 196.264C87.6087 195.879 82.6012 195.429 77.32 194.918C76.4273 194.835 75.5273 194.749 74.6201 194.659C74.3825 194.633 33.4541 184.345 33.4541 182.415V17.0192C33.4541 8.51256 40.348 1.61865 48.8547 1.61865H58.0489C59.5177 1.61865 60.6985 2.76343 60.8245 4.22861C60.8353 4.32582 60.8461 4.423 60.8641 4.52021C61.1305 5.9926 62.4805 7.01857 63.978 7.01857H96.2954C97.7929 7.01857 99.1429 5.9926 99.4093 4.52021C99.4273 4.423 99.4381 4.32582 99.4489 4.22861C99.5749 2.76343 100.756 1.61865 102.224 1.61865H111.419C119.925 1.61865 126.819 8.51256 126.819 17.0192Z" fill="white"/>
<path d="M31.474 43.5594C31.0769 43.5594 30.754 43.8823 30.754 44.2794V50.0393C30.754 50.4364 31.0769 50.7593 31.474 50.7593C31.8711 50.7593 32.194 50.4364 32.194 50.0393V44.2794C32.194 43.8823 31.8711 43.5594 31.474 43.5594Z" fill="#3F3D56"/>
<path d="M31.474 60.8391C31.0769 60.8391 30.754 61.162 30.754 61.5591V72.7189C30.754 73.116 31.0769 73.4389 31.474 73.4389C31.8711 73.4389 32.194 73.116 32.194 72.7189V61.5591C32.194 61.162 31.8711 60.8391 31.474 60.8391Z" fill="#3F3D56"/>
<path d="M31.474 76.6789C31.0769 76.6789 30.754 77.0018 30.754 77.3989V88.5587C30.754 88.9558 31.0769 89.2787 31.474 89.2787C31.8711 89.2787 32.194 88.9558 32.194 88.5587V77.3989C32.194 77.0018 31.8711 76.6789 31.474 76.6789Z" fill="#3F3D56"/>
<path d="M57.7983 4.14001H44.0291C43.9544 4.14001 43.8938 4.2006 43.8938 4.27534V5.80466C43.8938 5.8794 43.9544 5.93999 44.0291 5.93999H57.7983C57.873 5.93999 57.9336 5.8794 57.9336 5.80466V4.27534C57.9336 4.2006 57.873 4.14001 57.7983 4.14001Z" fill="#E6E6E6"/>
<path d="M104.5 5.93996C105.295 5.93996 105.94 5.29525 105.94 4.49998C105.94 3.7047 105.295 3.06 104.5 3.06C103.704 3.06 103.06 3.7047 103.06 4.49998C103.06 5.29525 103.704 5.93996 104.5 5.93996Z" fill="#E6E6E6"/>
<path d="M108.46 5.93996C109.255 5.93996 109.899 5.29525 109.899 4.49998C109.899 3.7047 109.255 3.06 108.46 3.06C107.664 3.06 107.02 3.7047 107.02 4.49998C107.02 5.29525 107.664 5.93996 108.46 5.93996Z" fill="#E6E6E6"/>
<path d="M112.419 5.93996C113.215 5.93996 113.859 5.29525 113.859 4.49998C113.859 3.7047 113.215 3.06 112.419 3.06C111.624 3.06 110.979 3.7047 110.979 4.49998C110.979 5.29525 111.624 5.93996 112.419 5.93996Z" fill="#E6E6E6"/>
<path d="M112.877 132.496C112.877 116.083 99.0046 107.053 83.158 102.777C62.8412 97.294 47.9615 108.389 53.4386 132.496C57.0751 148.502 75.5333 172.388 83.158 157.853C91.8827 141.221 112.877 148.91 112.877 132.496Z" fill="#F2F2F2"/>
<path d="M0 199.481C0 199.769 0.231219 200 0.519148 200H228.361C228.649 200 228.88 199.769 228.88 199.481C228.88 199.193 228.649 198.962 228.361 198.962H0.519148C0.231219 198.962 0 199.193 0 199.481Z" fill="#CCCCCC"/>
<path d="M72.9436 129.566L69.3534 127.866C70.8259 129.921 72.0948 133.13 72.7741 135.684C73.9242 133.305 75.7783 130.394 77.6136 128.655L73.8192 129.632C76.1573 118.173 84.9515 109.946 95.0222 109.946L95.1647 109.532C84.6457 109.532 75.3309 117.645 72.9436 129.566Z" fill="#3F3D56"/>
<path d="M89.468 147.026H66.7836C65.8215 147.026 65.0387 146.243 65.0387 145.281C65.0387 144.319 65.8215 143.536 66.7836 143.536H89.468C90.4301 143.536 91.2129 144.319 91.2129 145.281C91.2129 146.243 90.4301 147.026 89.468 147.026Z" fill="#6C63FF"/>
<path d="M110.673 56.591V102.832C110.673 106.921 107.347 110.248 103.257 110.248H57.0161C52.9268 110.248 49.6001 106.921 49.6001 102.832V56.591C49.6001 52.5017 52.9268 49.1749 57.0161 49.1749H103.257C107.347 49.1749 110.673 52.5017 110.673 56.591ZM103.257 109.376C106.871 109.376 109.801 106.446 109.801 102.832V79.5192C109.801 63.2424 96.6058 50.0474 80.329 50.0474H57.0161C53.4022 50.0474 50.4726 52.9771 50.4726 56.591V102.832C50.4726 106.446 53.4022 109.376 57.0161 109.376H103.257Z" fill="#3F3D56"/>
<path d="M86.2923 68.0606H71.364C70.9876 68.0606 70.6814 67.7544 70.6814 67.378C70.6814 67.0016 70.9876 66.6956 71.364 66.6956H86.2923C86.6686 66.6956 86.9747 67.0016 86.9747 67.378C86.9747 67.7544 86.6686 68.0606 86.2923 68.0606Z" fill="#3F3D56"/>
<path d="M86.2923 82.615H71.364C70.9876 82.615 70.6814 82.3088 70.6814 81.9324C70.6814 81.5561 70.9876 81.25 71.364 81.25H86.2923C86.6686 81.25 86.9747 81.5561 86.9747 81.9324C86.9747 82.3088 86.6686 82.615 86.2923 82.615Z" fill="#3F3D56"/>
<path d="M78.8761 102.682H63.9478C63.5715 102.682 63.2653 102.376 63.2653 101.999C63.2653 101.623 63.5715 101.317 63.9478 101.317H78.8761C79.2525 101.317 79.5586 101.623 79.5586 101.999C79.5586 102.376 79.2525 102.682 78.8761 102.682Z" fill="#3F3D56"/>
<path d="M94.3029 75.3426H63.3532C62.9769 75.3426 62.6707 75.0363 62.6707 74.66C62.6707 74.2836 62.9769 73.9775 63.3532 73.9775H94.3029C94.6792 73.9775 94.9853 74.2836 94.9853 74.66C94.9853 75.0363 94.6792 75.3426 94.3029 75.3426Z" fill="#3F3D56"/>
</g>
<defs>
<clipPath id="clip0_724_108">
<rect width="228.88" height="200" fill="white"/>
</clipPath>
</defs>
</svg>
