<svg width="50" height="50" viewBox="0 0 50 50" fill="none" xmlns="http://www.w3.org/2000/svg">
<path d="M34.375 25C34.375 23.5833 34.25 22.2083 34.0834 20.8333H41.125C41.4584 22.1667 41.6667 23.5625 41.6667 25C41.6667 25.7708 41.6042 26.5208 41.5 27.25C42.9375 27.4583 44.2709 27.9167 45.5 28.5833C45.7084 27.4167 45.8334 26.2292 45.8334 25C45.8334 13.5417 36.4584 4.16667 25 4.16667C13.4792 4.16667 4.16669 13.5417 4.16669 25C4.16669 36.4583 13.5417 45.8333 25 45.8333C26.2292 45.8333 27.4167 45.7083 28.5834 45.5C27.5938 43.6853 27.0779 41.6503 27.0834 39.5833C27.0834 38.9792 27.1459 38.3958 27.2292 37.8125C26.5625 39.125 25.8334 40.3958 25 41.5833C23.2709 39.0833 21.875 36.3125 21.0209 33.3333H28.7709C30.0221 31.1591 31.9036 29.4156 34.1667 28.3333C34.2917 27.2292 34.375 26.125 34.375 25ZM25 8.39584C26.7292 10.8958 28.125 13.6875 28.9792 16.6667H21.0209C21.875 13.6875 23.2709 10.8958 25 8.39584ZM8.87502 29.1667C8.54169 27.8333 8.33335 26.4375 8.33335 25C8.33335 23.5625 8.54169 22.1667 8.87502 20.8333H15.9167C15.75 22.2083 15.625 23.5833 15.625 25C15.625 26.4167 15.75 27.7917 15.9167 29.1667H8.87502ZM10.5834 33.3333H16.6667C17.3959 35.9375 18.3334 38.4375 19.5834 40.75C15.7888 39.441 12.5934 36.8078 10.5834 33.3333ZM16.6667 16.6667H10.5834C12.581 13.1817 15.7808 10.5448 19.5834 9.25C18.3334 11.5625 17.3959 14.0625 16.6667 16.6667ZM29.875 29.1667H20.125C19.9167 27.7917 19.7917 26.4167 19.7917 25C19.7917 23.5833 19.9167 22.1875 20.125 20.8333H29.875C30.0625 22.1875 30.2084 23.5833 30.2084 25C30.2084 26.4167 30.0625 27.7917 29.875 29.1667ZM30.3959 9.25C34.2292 10.5625 37.4167 13.2083 39.4167 16.6667H33.2709C32.6188 14.0864 31.6533 11.5956 30.3959 9.25ZM46.875 35.9375L36.9792 45.8333L31.25 39.5833L33.6667 37.1667L36.9792 40.4792L44.4584 33L46.875 35.9375Z" fill="#4E6EF1"/>
</svg>
